<svg version="1.2" baseProfile="tiny-ps" xmlns="http://www.w3.org/2000/svg" viewBox="0 0 307 331" width="307" height="331">
	<title>OBJECTS</title>
	<defs>
		<clipPath clipPathUnits="userSpaceOnUse" id="cp1">
			<path d="M306.14 330.75L154.89 330.75L151.9 330.75L0.66 330.75C3.65 311.78 9.14 291.56 17.13 270.1C27.39 242.52 82.59 227.29 106.29 217.62C106.19 217.56 106.08 217.51 105.98 217.44C112.76 213.04 116.92 207.44 118.47 200.63L185.77 197.38C187.31 206.35 191.18 212.54 197.37 215.94C197.27 216 197.16 216.06 197.02 216.14C218.24 225.71 278.86 241.07 289.66 270.1C297.65 291.56 303.14 311.78 306.14 330.75Z" />
		</clipPath>
	</defs>
	<style>
		tspan { white-space:pre }
		.shp0 { fill: #edcfb7 } 
		.shp1 { fill: #f19c7c } 
		.shp2 { fill: #d88971 } 
		.shp3 { fill: #765e69 } 
		.shp4 { fill: #ffa65b } 
		.shp5 { fill: #fddec0 } 
		.shp6 { fill: #b26e59 } 
		.shp7 { fill: #ffffff } 
		.shp8 { fill: #352c38 } 
	</style>
	<g id="OBJECTS">
		<g id="&lt;Group&gt;">
			<g id="&lt;Group&gt;">
				<g id="&lt;Group&gt;">
					<path id="&lt;Path&gt;" class="shp0" d="M136.39 194.94C126.16 197.6 117.28 196.27 109.72 190.94L111.72 196.27C95.72 189.16 87.05 171.16 85.72 142.27C84.39 113.38 89.05 99.16 99.72 99.6C129.05 139.6 141.28 171.38 136.39 194.94Z" />
					<path id="&lt;Path&gt;" class="shp0" d="M237.72 127.6C243.72 152.94 235.39 170.94 212.72 181.6L212.72 168.6C207.39 184.6 193.39 193.94 170.72 196.6C148.05 199.27 142.39 183.6 153.72 149.6L170.72 105.6L237.72 123.6" />
				</g>
				<g id="&lt;Group&gt;">
					<path id="&lt;Path&gt;" class="shp1" d="M303.91 330.75L153.77 330.75L150.8 330.75L0.66 330.75C3.63 311.92 9.08 291.85 17.01 270.54C28.9 238.58 101.64 223.32 114.38 214.06C125.28 206.13 128.99 189.03 125.53 162.77L152.28 163.48L179.04 162.77C175.57 189.03 179.29 206.13 190.19 214.06C202.93 223.32 275.66 238.58 287.55 270.54C295.48 291.85 300.93 311.92 303.91 330.75Z" />
					<path id="&lt;Path&gt;" class="shp2" d="M125.53 162.77L152.28 163.48L179.04 162.77C178.31 168.3 178.08 174.44 178.34 181.19C171.7 187.1 164.54 192.35 156.59 196.8C145.69 202.9 133.09 205.44 120.57 206.72C126.34 196.11 127.99 181.46 125.53 162.77Z" />
				</g>
				<g id="&lt;Group&gt;">
					<path id="&lt;Path&gt;" class="shp3" d="M306.14 330.75L154.89 330.75L151.9 330.75L0.66 330.75C3.65 311.78 9.14 291.56 17.13 270.1C27.39 242.52 82.59 227.29 106.29 217.62C106.19 217.56 106.08 217.51 105.98 217.44C112.76 213.04 116.92 207.44 118.47 200.63L185.77 197.38C187.31 206.35 191.18 212.54 197.37 215.94C197.27 216 197.16 216.06 197.02 216.14C218.24 225.71 278.86 241.07 289.66 270.1C297.65 291.56 303.14 311.78 306.14 330.75Z" />
					<g id="&lt;Clip Group&gt;" clip-path="url(#cp1)">
						<g id="&lt;Group&gt;">
							<g id="&lt;Group&gt;">
								<g id="&lt;Group&gt;">
									<g id="&lt;Group&gt;">
										<path id="&lt;Path&gt;" class="shp4" d="M231.84 206.07C234.5 208.63 237.15 211.19 239.81 213.76C238.96 213.88 238.12 214.01 237.27 214.13C240.46 211.06 243.64 207.98 246.83 204.9C247.45 204.31 250.37 204.1 249.17 205.26C245.98 208.34 242.79 211.41 239.6 214.49C239.12 214.95 237.62 215.41 237.06 214.86C234.4 212.3 231.74 209.74 229.09 207.18C228.39 206.5 231.16 205.41 231.84 206.07Z" />
									</g>
								</g>
								<g id="&lt;Group&gt;">
									<g id="&lt;Group&gt;">
										<path id="&lt;Path&gt;" class="shp4" d="M198.02 206.07C200.68 208.63 203.33 211.19 205.99 213.76C205.14 213.88 204.29 214.01 203.45 214.13C206.63 211.06 209.82 207.98 213.01 204.9C213.63 204.31 216.55 204.1 215.35 205.26C212.16 208.34 208.97 211.41 205.78 214.49C205.3 214.95 203.8 215.41 203.24 214.86C200.58 212.3 197.92 209.74 195.26 207.18C194.57 206.5 197.34 205.41 198.02 206.07Z" />
									</g>
								</g>
								<g id="&lt;Group&gt;">
									<g id="&lt;Group&gt;">
										<path id="&lt;Path&gt;" class="shp4" d="M164.2 206.07C166.86 208.63 169.51 211.19 172.17 213.76C171.32 213.88 170.47 214.01 169.63 214.13C172.81 211.06 176 207.98 179.19 204.9C179.81 204.31 182.73 204.1 181.53 205.26C178.34 208.34 175.15 211.41 171.96 214.49C171.48 214.95 169.98 215.41 169.42 214.86C166.76 212.3 164.1 209.74 161.44 207.18C160.75 206.5 163.51 205.41 164.2 206.07Z" />
									</g>
								</g>
								<g id="&lt;Group&gt;">
									<g id="&lt;Group&gt;">
										<path id="&lt;Path&gt;" class="shp4" d="M130.38 206.07C133.04 208.63 135.69 211.19 138.35 213.76C137.5 213.88 136.65 214.01 135.81 214.13C138.99 211.06 142.18 207.98 145.37 204.9C145.99 204.31 148.91 204.1 147.71 205.26C144.52 208.34 141.33 211.41 138.14 214.49C137.66 214.95 136.16 215.41 135.6 214.86C132.94 212.3 130.28 209.74 127.62 207.18C126.93 206.5 129.69 205.41 130.38 206.07Z" />
									</g>
								</g>
								<g id="&lt;Group&gt;">
									<g id="&lt;Group&gt;">
										<path id="&lt;Path&gt;" class="shp4" d="M96.56 206.07C99.22 208.63 101.87 211.19 104.53 213.76C103.68 213.88 102.83 214.01 101.99 214.13C105.17 211.06 108.36 207.98 111.55 204.9C112.17 204.31 115.09 204.1 113.88 205.26C110.7 208.34 107.51 211.41 104.32 214.49C103.84 214.95 102.34 215.41 101.77 214.86C99.12 212.3 96.46 209.74 93.8 207.18C93.11 206.5 95.87 205.41 96.56 206.07Z" />
									</g>
								</g>
								<g id="&lt;Group&gt;">
									<g id="&lt;Group&gt;">
										<path id="&lt;Path&gt;" class="shp4" d="M62.74 206.07C65.4 208.63 68.05 211.19 70.71 213.76C69.86 213.88 69.01 214.01 68.16 214.13C71.35 211.06 74.54 207.98 77.73 204.9C78.35 204.31 81.27 204.1 80.06 205.26C76.88 208.34 73.69 211.41 70.5 214.49C70.02 214.95 68.52 215.41 67.95 214.86C65.3 212.3 62.64 209.74 59.98 207.18C59.29 206.5 62.05 205.41 62.74 206.07Z" />
									</g>
								</g>
								<g id="&lt;Group&gt;">
									<g id="&lt;Group&gt;">
										<path id="&lt;Path&gt;" class="shp4" d="M28.92 206.07C31.57 208.63 34.23 211.19 36.89 213.76C36.04 213.88 35.19 214.01 34.34 214.13C37.53 211.06 40.72 207.98 43.91 204.9C44.53 204.31 47.45 204.1 46.24 205.26C43.06 208.34 39.87 211.41 36.68 214.49C36.2 214.95 34.7 215.41 34.13 214.86C31.48 212.3 28.82 209.74 26.16 207.18C25.47 206.5 28.23 205.41 28.92 206.07Z" />
									</g>
								</g>
								<g id="&lt;Group&gt;">
									<g id="&lt;Group&gt;">
										<path id="&lt;Path&gt;" class="shp4" d="M-4.9 206.07C-2.25 208.63 0.41 211.19 3.07 213.76C2.22 213.88 1.37 214.01 0.52 214.13C3.71 211.06 6.9 207.98 10.09 204.9C10.71 204.31 13.63 204.1 12.42 205.26C9.24 208.34 6.05 211.41 2.86 214.49C2.38 214.95 0.88 215.41 0.31 214.86C-2.34 212.3 -5 209.74 -7.66 207.18C-8.35 206.5 -5.59 205.41 -4.9 206.07Z" />
									</g>
								</g>
								<g id="&lt;Group&gt;">
									<g id="&lt;Group&gt;">
										<path id="&lt;Path&gt;" class="shp4" d="M265.66 206.07C268.32 208.63 270.97 211.19 273.63 213.76C272.78 213.88 271.94 214.01 271.09 214.13C274.28 211.06 277.46 207.98 280.65 204.9C281.27 204.31 284.19 204.1 282.99 205.26C279.8 208.34 276.61 211.41 273.42 214.49C272.94 214.95 271.44 215.41 270.88 214.86C268.22 212.3 265.56 209.74 262.91 207.18C262.21 206.5 264.98 205.41 265.66 206.07Z" />
									</g>
								</g>
							</g>
							<g id="&lt;Group&gt;">
								<g id="&lt;Group&gt;">
									<g id="&lt;Group&gt;">
										<path id="&lt;Path&gt;" class="shp4" d="M231.84 206.07C234.5 208.63 237.15 211.19 239.81 213.76C238.96 213.88 238.12 214.01 237.27 214.13C240.46 211.06 243.64 207.98 246.83 204.9C247.45 204.31 250.37 204.1 249.17 205.26C245.98 208.34 242.79 211.41 239.6 214.49C239.12 214.95 237.62 215.41 237.06 214.86C234.4 212.3 231.74 209.74 229.09 207.18C228.39 206.5 231.16 205.41 231.84 206.07Z" />
									</g>
								</g>
								<g id="&lt;Group&gt;">
									<g id="&lt;Group&gt;">
										<path id="&lt;Path&gt;" class="shp4" d="M198.02 206.07C200.68 208.63 203.33 211.19 205.99 213.76C205.14 213.88 204.29 214.01 203.45 214.13C206.63 211.06 209.82 207.98 213.01 204.9C213.63 204.31 216.55 204.1 215.35 205.26C212.16 208.34 208.97 211.41 205.78 214.49C205.3 214.95 203.8 215.41 203.24 214.86C200.58 212.3 197.92 209.74 195.26 207.18C194.57 206.5 197.34 205.41 198.02 206.07Z" />
									</g>
								</g>
								<g id="&lt;Group&gt;">
									<g id="&lt;Group&gt;">
										<path id="&lt;Path&gt;" class="shp4" d="M164.2 206.07C166.86 208.63 169.51 211.19 172.17 213.76C171.32 213.88 170.47 214.01 169.63 214.13C172.81 211.06 176 207.98 179.19 204.9C179.81 204.31 182.73 204.1 181.53 205.26C178.34 208.34 175.15 211.41 171.96 214.49C171.48 214.95 169.98 215.41 169.42 214.86C166.76 212.3 164.1 209.74 161.44 207.18C160.75 206.5 163.51 205.41 164.2 206.07Z" />
									</g>
								</g>
								<g id="&lt;Group&gt;">
									<g id="&lt;Group&gt;">
										<path id="&lt;Path&gt;" class="shp4" d="M130.38 206.07C133.04 208.63 135.69 211.19 138.35 213.76C137.5 213.88 136.65 214.01 135.81 214.13C138.99 211.06 142.18 207.98 145.37 204.9C145.99 204.31 148.91 204.1 147.71 205.26C144.52 208.34 141.33 211.41 138.14 214.49C137.66 214.95 136.16 215.41 135.6 214.86C132.94 212.3 130.28 209.74 127.62 207.18C126.93 206.5 129.69 205.41 130.38 206.07Z" />
									</g>
								</g>
								<g id="&lt;Group&gt;">
									<g id="&lt;Group&gt;">
										<path id="&lt;Path&gt;" class="shp4" d="M96.56 206.07C99.22 208.63 101.87 211.19 104.53 213.76C103.68 213.88 102.83 214.01 101.99 214.13C105.17 211.06 108.36 207.98 111.55 204.9C112.17 204.31 115.09 204.1 113.88 205.26C110.7 208.34 107.51 211.41 104.32 214.49C103.84 214.95 102.34 215.41 101.77 214.86C99.12 212.3 96.46 209.74 93.8 207.18C93.11 206.5 95.87 205.41 96.56 206.07Z" />
									</g>
								</g>
								<g id="&lt;Group&gt;">
									<g id="&lt;Group&gt;">
										<path id="&lt;Path&gt;" class="shp4" d="M62.74 206.07C65.4 208.63 68.05 211.19 70.71 213.76C69.86 213.88 69.01 214.01 68.16 214.13C71.35 211.06 74.54 207.98 77.73 204.9C78.35 204.31 81.27 204.1 80.06 205.26C76.88 208.34 73.69 211.41 70.5 214.49C70.02 214.95 68.52 215.41 67.95 214.86C65.3 212.3 62.64 209.74 59.98 207.18C59.29 206.5 62.05 205.41 62.74 206.07Z" />
									</g>
								</g>
								<g id="&lt;Group&gt;">
									<g id="&lt;Group&gt;">
										<path id="&lt;Path&gt;" class="shp4" d="M28.92 206.07C31.57 208.63 34.23 211.19 36.89 213.76C36.04 213.88 35.19 214.01 34.34 214.13C37.53 211.06 40.72 207.98 43.91 204.9C44.53 204.31 47.45 204.1 46.24 205.26C43.06 208.34 39.87 211.41 36.68 214.49C36.2 214.95 34.7 215.41 34.13 214.86C31.48 212.3 28.82 209.74 26.16 207.18C25.47 206.5 28.23 205.41 28.92 206.07Z" />
									</g>
								</g>
								<g id="&lt;Group&gt;">
									<g id="&lt;Group&gt;">
										<path id="&lt;Path&gt;" class="shp4" d="M-4.9 206.07C-2.25 208.63 0.41 211.19 3.07 213.76C2.22 213.88 1.37 214.01 0.52 214.13C3.71 211.06 6.9 207.98 10.09 204.9C10.71 204.31 13.63 204.1 12.42 205.26C9.24 208.34 6.05 211.41 2.86 214.49C2.38 214.95 0.88 215.41 0.31 214.86C-2.34 212.3 -5 209.74 -7.66 207.18C-8.35 206.5 -5.59 205.41 -4.9 206.07Z" />
									</g>
								</g>
								<g id="&lt;Group&gt;">
									<g id="&lt;Group&gt;">
										<path id="&lt;Path&gt;" class="shp4" d="M265.66 206.07C268.32 208.63 270.97 211.19 273.63 213.76C272.78 213.88 271.94 214.01 271.09 214.13C274.28 211.06 277.46 207.98 280.65 204.9C281.27 204.31 284.19 204.1 282.99 205.26C279.8 208.34 276.61 211.41 273.42 214.49C272.94 214.95 271.44 215.41 270.88 214.86C268.22 212.3 265.56 209.74 262.91 207.18C262.21 206.5 264.98 205.41 265.66 206.07Z" />
									</g>
								</g>
							</g>
							<g id="&lt;Group&gt;">
								<g id="&lt;Group&gt;">
									<g id="&lt;Group&gt;">
										<path id="&lt;Path&gt;" class="shp4" d="M231.84 319.24C234.5 321.8 237.15 324.37 239.81 326.93C238.96 327.05 238.12 327.18 237.27 327.3C240.46 324.23 243.64 321.15 246.83 318.08C247.45 317.48 250.37 317.28 249.17 318.44C245.98 321.51 242.79 324.59 239.6 327.66C239.12 328.13 237.62 328.58 237.06 328.04C234.4 325.48 231.74 322.91 229.09 320.35C228.39 319.68 231.16 318.58 231.84 319.24Z" />
									</g>
								</g>
								<g id="&lt;Group&gt;">
									<g id="&lt;Group&gt;">
										<path id="&lt;Path&gt;" class="shp4" d="M198.02 319.24C200.68 321.8 203.33 324.37 205.99 326.93C205.14 327.05 204.29 327.18 203.45 327.3C206.63 324.23 209.82 321.15 213.01 318.08C213.63 317.48 216.55 317.28 215.35 318.44C212.16 321.51 208.97 324.59 205.78 327.66C205.3 328.13 203.8 328.58 203.24 328.04C200.58 325.48 197.92 322.91 195.26 320.35C194.57 319.68 197.34 318.58 198.02 319.24Z" />
									</g>
								</g>
								<g id="&lt;Group&gt;">
									<g id="&lt;Group&gt;">
										<path id="&lt;Path&gt;" class="shp4" d="M164.2 319.24C166.86 321.8 169.51 324.37 172.17 326.93C171.32 327.05 170.47 327.18 169.63 327.3C172.81 324.23 176 321.15 179.19 318.08C179.81 317.48 182.73 317.28 181.53 318.44C178.34 321.51 175.15 324.59 171.96 327.66C171.48 328.13 169.98 328.58 169.42 328.04C166.76 325.48 164.1 322.91 161.44 320.35C160.75 319.68 163.51 318.58 164.2 319.24Z" />
									</g>
								</g>
								<g id="&lt;Group&gt;">
									<g id="&lt;Group&gt;">
										<path id="&lt;Path&gt;" class="shp4" d="M130.38 319.24C133.04 321.8 135.69 324.37 138.35 326.93C137.5 327.05 136.65 327.18 135.81 327.3C138.99 324.23 142.18 321.15 145.37 318.08C145.99 317.48 148.91 317.28 147.71 318.44C144.52 321.51 141.33 324.59 138.14 327.66C137.66 328.13 136.16 328.58 135.6 328.04C132.94 325.48 130.28 322.91 127.62 320.35C126.93 319.68 129.69 318.58 130.38 319.24Z" />
									</g>
								</g>
								<g id="&lt;Group&gt;">
									<g id="&lt;Group&gt;">
										<path id="&lt;Path&gt;" class="shp4" d="M96.56 319.24C99.22 321.8 101.87 324.37 104.53 326.93C103.68 327.05 102.83 327.18 101.99 327.3C105.17 324.23 108.36 321.15 111.55 318.08C112.17 317.48 115.09 317.28 113.88 318.44C110.7 321.51 107.51 324.59 104.32 327.66C103.84 328.13 102.34 328.58 101.77 328.04C99.12 325.48 96.46 322.91 93.8 320.35C93.11 319.68 95.87 318.58 96.56 319.24Z" />
									</g>
								</g>
								<g id="&lt;Group&gt;">
									<g id="&lt;Group&gt;">
										<path id="&lt;Path&gt;" class="shp4" d="M62.74 319.24C65.4 321.8 68.05 324.37 70.71 326.93C69.86 327.05 69.01 327.18 68.16 327.3C71.35 324.23 74.54 321.15 77.73 318.08C78.35 317.48 81.27 317.28 80.06 318.44C76.88 321.51 73.69 324.59 70.5 327.66C70.02 328.13 68.52 328.58 67.95 328.04C65.3 325.48 62.64 322.91 59.98 320.35C59.29 319.68 62.05 318.58 62.74 319.24Z" />
									</g>
								</g>
								<g id="&lt;Group&gt;">
									<g id="&lt;Group&gt;">
										<path id="&lt;Path&gt;" class="shp4" d="M28.92 319.24C31.57 321.8 34.23 324.37 36.89 326.93C36.04 327.05 35.19 327.18 34.34 327.3C37.53 324.23 40.72 321.15 43.91 318.08C44.53 317.48 47.45 317.28 46.24 318.44C43.06 321.51 39.87 324.59 36.68 327.66C36.2 328.13 34.7 328.58 34.13 328.04C31.48 325.48 28.82 322.91 26.16 320.35C25.47 319.68 28.23 318.58 28.92 319.24Z" />
									</g>
								</g>
								<g id="&lt;Group&gt;">
									<g id="&lt;Group&gt;">
										<path id="&lt;Path&gt;" class="shp4" d="M-4.9 319.24C-2.25 321.8 0.41 324.37 3.07 326.93C2.22 327.05 1.37 327.18 0.52 327.3C3.71 324.23 6.9 321.15 10.09 318.08C10.71 317.48 13.63 317.28 12.42 318.44C9.24 321.51 6.05 324.59 2.86 327.66C2.38 328.13 0.88 328.58 0.31 328.04C-2.34 325.48 -5 322.91 -7.66 320.35C-8.35 319.68 -5.59 318.58 -4.9 319.24Z" />
									</g>
								</g>
								<g id="&lt;Group&gt;">
									<g id="&lt;Group&gt;">
										<path id="&lt;Path&gt;" class="shp4" d="M265.66 319.24C268.32 321.8 270.97 324.37 273.63 326.93C272.78 327.05 271.94 327.18 271.09 327.3C274.28 324.23 277.46 321.15 280.65 318.08C281.27 317.48 284.19 317.28 282.99 318.44C279.8 321.51 276.61 324.59 273.42 327.66C272.94 328.13 271.44 328.58 270.88 328.04C268.22 325.48 265.56 322.91 262.91 320.35C262.21 319.68 264.98 318.58 265.66 319.24Z" />
									</g>
								</g>
							</g>
							<g id="&lt;Group&gt;">
								<g id="&lt;Group&gt;">
									<g id="&lt;Group&gt;">
										<path id="&lt;Path&gt;" class="shp4" d="M249.38 289.72C252.03 292.28 254.69 294.84 257.35 297.41C256.5 297.53 255.65 297.66 254.8 297.78C257.99 294.71 261.18 291.63 264.37 288.55C264.99 287.96 267.9 287.75 266.7 288.91C263.51 291.99 260.33 295.06 257.14 298.14C256.66 298.6 255.16 299.06 254.59 298.51C251.94 295.95 249.28 293.39 246.62 290.83C245.93 290.15 248.69 289.06 249.38 289.72Z" />
									</g>
								</g>
								<g id="&lt;Group&gt;">
									<g id="&lt;Group&gt;">
										<path id="&lt;Path&gt;" class="shp4" d="M215.56 289.72C218.21 292.28 220.87 294.84 223.53 297.41C222.68 297.53 221.83 297.66 220.98 297.78C224.17 294.71 227.36 291.63 230.55 288.55C231.17 287.96 234.08 287.75 232.88 288.91C229.69 291.99 226.51 295.06 223.32 298.14C222.84 298.6 221.34 299.06 220.77 298.51C218.12 295.95 215.46 293.39 212.8 290.83C212.1 290.15 214.87 289.06 215.56 289.72Z" />
									</g>
								</g>
								<g id="&lt;Group&gt;">
									<g id="&lt;Group&gt;">
										<path id="&lt;Path&gt;" class="shp4" d="M181.74 289.72C184.39 292.28 187.05 294.84 189.71 297.41C188.86 297.53 188.01 297.66 187.16 297.78C190.35 294.71 193.54 291.63 196.73 288.55C197.35 287.96 200.26 287.75 199.06 288.91C195.87 291.99 192.69 295.06 189.5 298.14C189.02 298.6 187.52 299.06 186.95 298.51C184.3 295.95 181.64 293.39 178.98 290.83C178.28 290.15 181.05 289.06 181.74 289.72Z" />
									</g>
								</g>
								<g id="&lt;Group&gt;">
									<g id="&lt;Group&gt;">
										<path id="&lt;Path&gt;" class="shp4" d="M147.92 289.72C150.57 292.28 153.23 294.84 155.89 297.41C155.04 297.53 154.19 297.66 153.34 297.78C156.53 294.71 159.72 291.63 162.91 288.55C163.53 287.96 166.44 287.75 165.24 288.91C162.05 291.99 158.86 295.06 155.68 298.14C155.2 298.6 153.7 299.06 153.13 298.51C150.47 295.95 147.82 293.39 145.16 290.83C144.46 290.15 147.23 289.06 147.92 289.72Z" />
									</g>
								</g>
								<g id="&lt;Group&gt;">
									<g id="&lt;Group&gt;">
										<path id="&lt;Path&gt;" class="shp4" d="M114.1 289.72C116.75 292.28 119.41 294.84 122.07 297.41C121.22 297.53 120.37 297.66 119.52 297.78C122.71 294.71 125.9 291.63 129.09 288.55C129.71 287.96 132.62 287.75 131.42 288.91C128.23 291.99 125.04 295.06 121.86 298.14C121.37 298.6 119.88 299.06 119.31 298.51C116.65 295.95 114 293.39 111.34 290.83C110.64 290.15 113.41 289.06 114.1 289.72Z" />
									</g>
								</g>
								<g id="&lt;Group&gt;">
									<g id="&lt;Group&gt;">
										<path id="&lt;Path&gt;" class="shp4" d="M80.27 289.72C82.93 292.28 85.59 294.84 88.25 297.41C87.4 297.53 86.55 297.66 85.7 297.78C88.89 294.71 92.08 291.63 95.27 288.55C95.89 287.96 98.8 287.75 97.6 288.91C94.41 291.99 91.22 295.06 88.04 298.14C87.55 298.6 86.06 299.06 85.49 298.51C82.83 295.95 80.18 293.39 77.52 290.83C76.82 290.15 79.59 289.06 80.27 289.72Z" />
									</g>
								</g>
								<g id="&lt;Group&gt;">
									<g id="&lt;Group&gt;">
										<path id="&lt;Path&gt;" class="shp4" d="M46.45 289.72C49.11 292.28 51.77 294.84 54.43 297.41C53.58 297.53 52.73 297.66 51.88 297.78C55.07 294.71 58.26 291.63 61.45 288.55C62.07 287.96 64.98 287.75 63.78 288.91C60.59 291.99 57.4 295.06 54.22 298.14C53.73 298.6 52.23 299.06 51.67 298.51C49.01 295.95 46.36 293.39 43.7 290.83C43 290.15 45.77 289.06 46.45 289.72Z" />
									</g>
								</g>
								<g id="&lt;Group&gt;">
									<g id="&lt;Group&gt;">
										<path id="&lt;Path&gt;" class="shp4" d="M12.63 289.72C15.29 292.28 17.95 294.84 20.61 297.41C19.76 297.53 18.91 297.66 18.06 297.78C21.25 294.71 24.44 291.63 27.63 288.55C28.25 287.96 31.16 287.75 29.96 288.91C26.77 291.99 23.58 295.06 20.39 298.14C19.91 298.6 18.41 299.06 17.85 298.51C15.19 295.95 12.54 293.39 9.88 290.83C9.18 290.15 11.95 289.06 12.63 289.72Z" />
									</g>
								</g>
								<g id="&lt;Group&gt;">
									<g id="&lt;Group&gt;">
										<path id="&lt;Path&gt;" class="shp4" d="M283.2 289.72C285.85 292.28 288.51 294.84 291.17 297.41C290.32 297.53 289.47 297.66 288.62 297.78C291.81 294.71 295 291.63 298.19 288.55C298.81 287.96 301.73 287.75 300.52 288.91C297.33 291.99 294.15 295.06 290.96 298.14C290.48 298.6 288.98 299.06 288.41 298.51C285.76 295.95 283.1 293.39 280.44 290.83C279.75 290.15 282.51 289.06 283.2 289.72Z" />
									</g>
								</g>
							</g>
							<g id="&lt;Group&gt;">
								<g id="&lt;Group&gt;">
									<g id="&lt;Group&gt;">
										<path id="&lt;Path&gt;" class="shp4" d="M231.84 262.65C234.5 265.22 237.15 267.78 239.81 270.34C238.96 270.47 238.12 270.59 237.27 270.72C240.46 267.64 243.64 264.57 246.83 261.49C247.45 260.89 250.37 260.69 249.17 261.85C245.98 264.93 242.79 268 239.6 271.08C239.12 271.54 237.62 272 237.06 271.45C234.4 268.89 231.74 266.33 229.09 263.76C228.39 263.09 231.16 261.99 231.84 262.65Z" />
									</g>
								</g>
								<g id="&lt;Group&gt;">
									<g id="&lt;Group&gt;">
										<path id="&lt;Path&gt;" class="shp4" d="M198.02 262.65C200.68 265.22 203.33 267.78 205.99 270.34C205.14 270.47 204.29 270.59 203.45 270.72C206.63 267.64 209.82 264.57 213.01 261.49C213.63 260.89 216.55 260.69 215.35 261.85C212.16 264.93 208.97 268 205.78 271.08C205.3 271.54 203.8 272 203.24 271.45C200.58 268.89 197.92 266.33 195.26 263.76C194.57 263.09 197.34 261.99 198.02 262.65Z" />
									</g>
								</g>
								<g id="&lt;Group&gt;">
									<g id="&lt;Group&gt;">
										<path id="&lt;Path&gt;" class="shp4" d="M164.2 262.65C166.86 265.22 169.51 267.78 172.17 270.34C171.32 270.47 170.47 270.59 169.63 270.72C172.81 267.64 176 264.57 179.19 261.49C179.81 260.89 182.73 260.69 181.53 261.85C178.34 264.93 175.15 268 171.96 271.08C171.48 271.54 169.98 272 169.42 271.45C166.76 268.89 164.1 266.33 161.44 263.76C160.75 263.09 163.51 261.99 164.2 262.65Z" />
									</g>
								</g>
								<g id="&lt;Group&gt;">
									<g id="&lt;Group&gt;">
										<path id="&lt;Path&gt;" class="shp4" d="M130.38 262.65C133.04 265.22 135.69 267.78 138.35 270.34C137.5 270.47 136.65 270.59 135.81 270.72C138.99 267.64 142.18 264.57 145.37 261.49C145.99 260.89 148.91 260.69 147.71 261.85C144.52 264.93 141.33 268 138.14 271.08C137.66 271.54 136.16 272 135.6 271.45C132.94 268.89 130.28 266.33 127.62 263.76C126.93 263.09 129.69 261.99 130.38 262.65Z" />
									</g>
								</g>
								<g id="&lt;Group&gt;">
									<g id="&lt;Group&gt;">
										<path id="&lt;Path&gt;" class="shp4" d="M96.56 262.65C99.22 265.22 101.87 267.78 104.53 270.34C103.68 270.47 102.83 270.59 101.99 270.72C105.17 267.64 108.36 264.57 111.55 261.49C112.17 260.89 115.09 260.69 113.88 261.85C110.7 264.93 107.51 268 104.32 271.08C103.84 271.54 102.34 272 101.77 271.45C99.12 268.89 96.46 266.33 93.8 263.76C93.11 263.09 95.87 261.99 96.56 262.65Z" />
									</g>
								</g>
								<g id="&lt;Group&gt;">
									<g id="&lt;Group&gt;">
										<path id="&lt;Path&gt;" class="shp4" d="M62.74 262.65C65.4 265.22 68.05 267.78 70.71 270.34C69.86 270.47 69.01 270.59 68.16 270.72C71.35 267.64 74.54 264.57 77.73 261.49C78.35 260.89 81.27 260.69 80.06 261.85C76.88 264.93 73.69 268 70.5 271.08C70.02 271.54 68.52 272 67.95 271.45C65.3 268.89 62.64 266.33 59.98 263.76C59.29 263.09 62.05 261.99 62.74 262.65Z" />
									</g>
								</g>
								<g id="&lt;Group&gt;">
									<g id="&lt;Group&gt;">
										<path id="&lt;Path&gt;" class="shp4" d="M28.92 262.65C31.57 265.22 34.23 267.78 36.89 270.34C36.04 270.47 35.19 270.59 34.34 270.72C37.53 267.64 40.72 264.57 43.91 261.49C44.53 260.89 47.45 260.69 46.24 261.85C43.06 264.93 39.87 268 36.68 271.08C36.2 271.54 34.7 272 34.13 271.45C31.48 268.89 28.82 266.33 26.16 263.76C25.47 263.09 28.23 261.99 28.92 262.65Z" />
									</g>
								</g>
								<g id="&lt;Group&gt;">
									<g id="&lt;Group&gt;">
										<path id="&lt;Path&gt;" class="shp4" d="M-4.9 262.65C-2.25 265.22 0.41 267.78 3.07 270.34C2.22 270.47 1.37 270.59 0.52 270.72C3.71 267.64 6.9 264.57 10.09 261.49C10.71 260.89 13.63 260.69 12.42 261.85C9.24 264.93 6.05 268 2.86 271.08C2.38 271.54 0.88 272 0.31 271.45C-2.34 268.89 -5 266.33 -7.66 263.76C-8.35 263.09 -5.59 261.99 -4.9 262.65Z" />
									</g>
								</g>
								<g id="&lt;Group&gt;">
									<g id="&lt;Group&gt;">
										<path id="&lt;Path&gt;" class="shp4" d="M265.66 262.65C268.32 265.22 270.97 267.78 273.63 270.34C272.78 270.47 271.94 270.59 271.09 270.72C274.28 267.64 277.46 264.57 280.65 261.49C281.27 260.89 284.19 260.69 282.99 261.85C279.8 264.93 276.61 268 273.42 271.08C272.94 271.54 271.44 272 270.88 271.45C268.22 268.89 265.56 266.33 262.91 263.76C262.21 263.09 264.98 261.99 265.66 262.65Z" />
									</g>
								</g>
							</g>
							<g id="&lt;Group&gt;">
								<g id="&lt;Group&gt;">
									<g id="&lt;Group&gt;">
										<path id="&lt;Path&gt;" class="shp4" d="M248.12 233.13C250.78 235.69 253.44 238.26 256.1 240.82C255.25 240.94 254.4 241.07 253.55 241.19C256.74 238.12 259.93 235.04 263.12 231.97C263.74 231.37 266.65 231.17 265.45 232.33C262.26 235.4 259.07 238.48 255.89 241.55C255.4 242.02 253.9 242.47 253.34 241.93C250.68 239.36 248.03 236.8 245.37 234.24C244.67 233.57 247.44 232.47 248.12 233.13Z" />
									</g>
								</g>
								<g id="&lt;Group&gt;">
									<g id="&lt;Group&gt;">
										<path id="&lt;Path&gt;" class="shp4" d="M214.3 233.13C216.96 235.69 219.62 238.26 222.27 240.82C221.43 240.94 220.58 241.07 219.73 241.19C222.92 238.12 226.11 235.04 229.3 231.97C229.92 231.37 232.83 231.17 231.63 232.33C228.44 235.4 225.25 238.48 222.06 241.55C221.58 242.02 220.08 242.47 219.52 241.93C216.86 239.36 214.21 236.8 211.55 234.24C210.85 233.57 213.62 232.47 214.3 233.13Z" />
									</g>
								</g>
								<g id="&lt;Group&gt;">
									<g id="&lt;Group&gt;">
										<path id="&lt;Path&gt;" class="shp4" d="M180.48 233.13C183.14 235.69 185.8 238.26 188.45 240.82C187.61 240.94 186.76 241.07 185.91 241.19C189.1 238.12 192.29 235.04 195.48 231.97C196.09 231.37 199.01 231.17 197.81 232.33C194.62 235.4 191.43 238.48 188.24 241.55C187.76 242.02 186.26 242.47 185.7 241.93C183.04 239.36 180.39 236.8 177.73 234.24C177.03 233.57 179.8 232.47 180.48 233.13Z" />
									</g>
								</g>
								<g id="&lt;Group&gt;">
									<g id="&lt;Group&gt;">
										<path id="&lt;Path&gt;" class="shp4" d="M146.66 233.13C149.32 235.69 151.98 238.26 154.63 240.82C153.79 240.94 152.94 241.07 152.09 241.19C155.28 238.12 158.47 235.04 161.65 231.97C162.27 231.37 165.19 231.17 163.99 232.33C160.8 235.4 157.61 238.48 154.42 241.55C153.94 242.02 152.44 242.47 151.88 241.93C149.22 239.36 146.57 236.8 143.91 234.24C143.21 233.57 145.98 232.47 146.66 233.13Z" />
									</g>
								</g>
								<g id="&lt;Group&gt;">
									<g id="&lt;Group&gt;">
										<path id="&lt;Path&gt;" class="shp4" d="M112.84 233.13C115.5 235.69 118.16 238.26 120.81 240.82C119.97 240.94 119.12 241.07 118.27 241.19C121.46 238.12 124.65 235.04 127.83 231.97C128.45 231.37 131.37 231.17 130.17 232.33C126.98 235.4 123.79 238.48 120.6 241.55C120.12 242.02 118.62 242.47 118.06 241.93C115.4 239.36 112.74 236.8 110.09 234.24C109.39 233.57 112.16 232.47 112.84 233.13Z" />
									</g>
								</g>
								<g id="&lt;Group&gt;">
									<g id="&lt;Group&gt;">
										<path id="&lt;Path&gt;" class="shp4" d="M79.02 233.13C81.68 235.69 84.34 238.26 86.99 240.82C86.15 240.94 85.3 241.07 84.45 241.19C87.64 238.12 90.83 235.04 94.01 231.97C94.63 231.37 97.55 231.17 96.35 232.33C93.16 235.4 89.97 238.48 86.78 241.55C86.3 242.02 84.8 242.47 84.24 241.93C81.58 239.36 78.92 236.8 76.27 234.24C75.57 233.57 78.34 232.47 79.02 233.13Z" />
									</g>
								</g>
								<g id="&lt;Group&gt;">
									<g id="&lt;Group&gt;">
										<path id="&lt;Path&gt;" class="shp4" d="M45.2 233.13C47.86 235.69 50.52 238.26 53.17 240.82C52.32 240.94 51.48 241.07 50.63 241.19C53.82 238.12 57.01 235.04 60.19 231.97C60.81 231.37 63.73 231.17 62.53 232.33C59.34 235.4 56.15 238.48 52.96 241.55C52.48 242.02 50.98 242.47 50.42 241.93C47.76 239.36 45.1 236.8 42.45 234.24C41.75 233.57 44.52 232.47 45.2 233.13Z" />
									</g>
								</g>
								<g id="&lt;Group&gt;">
									<g id="&lt;Group&gt;">
										<path id="&lt;Path&gt;" class="shp4" d="M11.38 233.13C14.04 235.69 16.7 238.26 19.35 240.82C18.5 240.94 17.66 241.07 16.81 241.19C20 238.12 23.18 235.04 26.37 231.97C26.99 231.37 29.91 231.17 28.71 232.33C25.52 235.4 22.33 238.48 19.14 241.55C18.66 242.02 17.16 242.47 16.6 241.93C13.94 239.36 11.28 236.8 8.63 234.24C7.93 233.57 10.7 232.47 11.38 233.13Z" />
									</g>
								</g>
								<g id="&lt;Group&gt;">
									<g id="&lt;Group&gt;">
										<path id="&lt;Path&gt;" class="shp4" d="M281.94 233.13C284.6 235.69 287.26 238.26 289.92 240.82C289.07 240.94 288.22 241.07 287.37 241.19C290.56 238.12 293.75 235.04 296.94 231.97C297.56 231.37 300.47 231.17 299.27 232.33C296.08 235.4 292.89 238.48 289.71 241.55C289.22 242.02 287.72 242.47 287.16 241.93C284.5 239.36 281.85 236.8 279.19 234.24C278.49 233.57 281.26 232.47 281.94 233.13Z" />
									</g>
								</g>
							</g>
						</g>
					</g>
				</g>
			</g>
			<g id="&lt;Group&gt;">
				<g id="&lt;Group&gt;">
					<path id="&lt;Path&gt;" class="shp5" d="M102.72 51.6C100.72 94.94 97.05 129.94 91.72 156.6C86.39 183.27 75.72 187.94 59.72 170.6C82.72 142.6 52.72 77.6 75.72 36.6C91.05 9.27 109.94 5.82 132.39 26.27L102.72 51.6Z" />
					<g id="&lt;Group&gt;">
						<path id="&lt;Path&gt;" class="shp5" d="M126.59 30.59C126.25 30.19 125.74 29.64 125.05 28.95C124.02 27.91 122.44 26.45 120.29 24.79C118.15 23.14 115.36 21.32 111.91 19.93C108.46 18.6 104.26 17.72 99.86 18.48C95.47 19.17 91.08 21.56 87.27 25.03C83.42 28.46 80.05 33.01 77.15 37.83C76.45 39.11 75.65 40.4 75.02 41.69C74.44 43 73.77 44.25 73.23 45.62C72.13 48.33 71.15 51.15 70.33 54.04C68.69 59.83 67.67 65.91 67.07 72.05C66.42 78.19 66.16 84.39 66.08 90.51C66.03 96.63 66.03 102.68 66.1 108.54C66.22 120.27 66.16 131.32 64.94 140.74C64.36 145.45 63.49 149.74 62.31 153.42C61.15 157.11 59.84 160.23 58.43 162.62C58.08 163.21 57.77 163.79 57.45 164.31C57.09 164.81 56.75 165.28 56.44 165.72C55.83 166.6 55.27 167.31 54.75 167.85C54.1 168.57 53.59 169.13 53.25 169.52C53.55 169.1 54 168.5 54.58 167.71C55.04 167.14 55.52 166.38 56.04 165.45C56.3 165 56.59 164.51 56.9 163.99C57.18 163.45 57.44 162.86 57.74 162.26C58.95 159.83 60.01 156.7 60.87 153.04C61.75 149.37 62.29 145.14 62.65 140.51C62.99 135.88 63.07 130.83 63.03 125.48C62.98 120.13 62.75 114.48 62.58 108.61C62.41 102.75 62.17 96.67 62.22 90.47C62.25 84.28 62.46 77.96 63.09 71.64C63.76 65.33 64.85 59.03 66.62 52.97C67.49 49.94 68.58 46.99 69.82 44.15C70.43 42.72 71.19 41.33 71.87 39.93C72.58 38.57 73.37 37.35 74.1 36.07C77.33 30.91 81 26.39 85.32 22.78C89.55 19.16 94.61 16.72 99.55 16.22C104.51 15.59 109 16.92 112.5 18.58C116.02 20.3 118.72 22.36 120.79 24.19C122.87 26.02 124.27 27.68 125.21 28.8C125.84 29.56 126.29 30.16 126.59 30.59Z" />
					</g>
				</g>
				<g id="&lt;Group&gt;">
					<path id="&lt;Path&gt;" class="shp2" d="M96.09 123.9C88.44 126.14 80.29 118.52 78.45 104.47C76.63 90.5 87.2 88.93 88.21 88.82C89.17 88.49 99.4 85.39 103.72 98.8C108.07 112.28 103.95 122.65 96.09 123.9Z" />
					<path id="&lt;Path&gt;" class="shp2" d="M195.87 101.36C200.19 87.96 210.43 91.06 211.38 91.38C212.39 91.5 222.97 93.07 221.14 107.04C219.3 121.09 211.15 128.7 203.5 126.47C195.64 125.22 191.52 114.85 195.87 101.36Z" />
					<path id="&lt;Path&gt;" class="shp1" d="M150.54 175.89C117.24 178.01 90.9 139.4 96.29 80.27C101.64 21.5 146.33 24.79 150.54 25.23C154.76 24.79 199.44 21.5 204.79 80.27C210.18 139.4 183.85 178.01 150.54 175.89Z" />
				</g>
				<g id="&lt;Group&gt;">
					<g id="&lt;Group&gt;">
						<path id="&lt;Path&gt;" class="shp6" d="M156.93 100.34C157.25 101.28 157.49 102.24 157.75 103.19C158.03 104.14 158.25 105.1 158.47 106.06C158.91 107.97 159.29 109.9 159.63 111.83C159.94 113.77 160.27 115.7 160.5 117.65C160.77 119.59 160.97 121.54 161.14 123.49L161.18 124L160.87 124.27C159.69 125.28 158.49 126.26 157.27 127.23C156.02 128.16 154.81 129.14 153.51 130.01C154.45 128.76 155.5 127.61 156.49 126.41C157.52 125.24 158.57 124.1 159.64 122.97L159.37 123.75C158.99 121.82 158.63 119.89 158.34 117.96C158.02 116.02 157.79 114.07 157.55 112.13C157.34 110.18 157.16 108.22 157.05 106.26C156.99 105.28 156.94 104.3 156.93 103.31C156.92 102.32 156.88 101.33 156.93 100.34Z" />
					</g>
					<path id="&lt;Path&gt;" class="shp7" d="M124.67 138.66L177.7 138.11C163.56 152.02 145.88 152.21 124.67 138.66Z" />
					<g id="&lt;Group&gt;">
						<path id="&lt;Path&gt;" class="shp6" d="M138.27 149.31C138.65 149.4 139.16 149.52 139.81 149.7C140.78 149.93 142.16 150.47 143.83 150.72C144.66 150.87 145.55 151.03 146.48 151.23C147.39 151.48 148.44 151.4 149.46 151.54C150.5 151.64 151.56 151.78 152.65 151.68C153.74 151.64 154.84 151.64 155.94 151.57C157.03 151.39 158.11 151.22 159.18 151.05C160.27 150.96 161.25 150.5 162.26 150.25C163.24 149.93 164.25 149.74 165.09 149.28C165.95 148.88 166.79 148.52 167.57 148.19C168.37 147.9 169 147.44 169.6 147.1C170.2 146.75 170.72 146.44 171.15 146.19C171.73 145.85 172.19 145.6 172.54 145.42C172.28 145.69 171.91 146.07 171.42 146.53C171.05 146.88 170.6 147.3 170.08 147.78C169.55 148.26 169 148.88 168.22 149.29C167.48 149.76 166.67 150.27 165.8 150.78C164.96 151.37 163.94 151.71 162.9 152.1C162.38 152.3 161.85 152.5 161.31 152.7L160.5 153L159.64 153.15C158.49 153.36 157.32 153.57 156.16 153.78C154.97 153.85 153.78 153.82 152.62 153.83C151.45 153.92 150.32 153.65 149.23 153.49C148.14 153.28 147.07 153.22 146.11 152.84C145.14 152.54 144.23 152.22 143.4 151.93C142.55 151.68 141.86 151.3 141.25 150.96C140.63 150.63 140.09 150.34 139.65 150.1C139.06 149.78 138.6 149.52 138.27 149.31Z" />
					</g>
					<g id="&lt;Group&gt;">
						<path id="&lt;Path&gt;" class="shp8" d="M126.41 93.21C128.44 93.21 130.08 96.8 130.08 101.22C130.08 105.65 128.44 109.24 126.41 109.24C124.38 109.24 122.74 105.65 122.74 101.22C122.74 96.8 124.38 93.21 126.41 93.21Z" />
						<path id="&lt;Path&gt;" class="shp8" d="M176.84 93.21C178.87 93.21 180.51 96.8 180.51 101.22C180.51 105.65 178.87 109.24 176.84 109.24C174.81 109.24 173.17 105.65 173.17 101.22C173.17 96.8 174.81 93.21 176.84 93.21Z" />
					</g>
					<g id="&lt;Group&gt;">
						<path id="&lt;Path&gt;" class="shp8" d="M113.73 88.11C114.16 86.83 115.03 85.44 116.35 83.96C116.88 83.44 117.4 82.8 118.09 82.28C118.75 81.71 119.49 81.18 120.34 80.7C121.14 80.17 122.11 79.84 123.06 79.44C124.08 79.19 125.09 78.83 126.18 78.81C126.72 78.78 127.26 78.74 127.8 78.73C128.34 78.78 128.87 78.86 129.4 78.94C130.48 79.01 131.43 79.5 132.37 79.82C133.31 80.17 134.05 80.79 134.81 81.25C135.58 81.7 136.07 82.41 136.62 82.92C137.15 83.46 137.61 83.96 137.91 84.5C138.24 85 138.49 85.47 138.7 85.84C138.97 86.35 139.17 86.75 139.3 87.04C138.99 86.9 138.59 86.7 138.09 86.44C137.73 86.23 137.28 86 136.81 85.71C136.35 85.39 135.75 85.18 135.15 84.88C134.53 84.64 133.95 84.22 133.23 84.05C132.53 83.86 131.86 83.5 131.11 83.38C130.37 83.29 129.64 83 128.87 83.04C128.48 83.01 128.1 83 127.72 82.96L126.56 83.05C125.78 83.02 125.01 83.32 124.23 83.4C123.47 83.67 122.68 83.78 121.96 84.11C121.21 84.36 120.49 84.65 119.81 84.97C119.11 85.25 118.48 85.61 117.86 85.88C117.25 86.2 116.7 86.49 116.2 86.75C115.7 87.02 115.26 87.26 114.9 87.46C114.41 87.74 114.02 87.95 113.73 88.11Z" />
					</g>
					<g id="&lt;Group&gt;">
						<path id="&lt;Path&gt;" class="shp8" d="M164.52 88.11C164.94 86.83 165.81 85.44 167.14 83.96C167.66 83.44 168.18 82.8 168.87 82.28C169.53 81.71 170.28 81.18 171.12 80.7C171.92 80.17 172.9 79.84 173.84 79.44C174.86 79.19 175.87 78.83 176.96 78.81C177.5 78.78 178.04 78.74 178.58 78.73C179.12 78.78 179.66 78.86 180.18 78.94C181.26 79.01 182.21 79.5 183.15 79.82C184.09 80.17 184.84 80.79 185.59 81.25C186.36 81.7 186.85 82.41 187.4 82.92C187.93 83.46 188.39 83.96 188.69 84.5C189.02 85 189.27 85.47 189.48 85.84C189.76 86.35 189.96 86.75 190.09 87.04C189.77 86.9 189.37 86.7 188.88 86.44C188.51 86.23 188.06 86 187.59 85.71C187.14 85.39 186.53 85.18 185.94 84.88C185.31 84.64 184.73 84.22 184.02 84.05C183.31 83.86 182.64 83.5 181.9 83.38C181.15 83.29 180.43 83 179.65 83.04C179.27 83.01 178.89 83 178.5 82.96L177.34 83.05C176.56 83.02 175.79 83.32 175.01 83.4C174.26 83.67 173.46 83.78 172.74 84.11C171.99 84.36 171.27 84.65 170.59 84.97C169.89 85.25 169.27 85.61 168.64 85.88C168.03 86.2 167.48 86.49 166.99 86.75C166.48 87.02 166.05 87.26 165.68 87.46C165.19 87.74 164.8 87.95 164.52 88.11Z" />
					</g>
				</g>
				<g id="&lt;Group&gt;">
					<path id="&lt;Path&gt;" class="shp5" d="M210.39 16.94C234.39 38.27 243.83 76.49 238.72 131.6C198.72 126.6 174.72 55.6 160.72 36.6C151.39 23.94 139.05 25.6 123.72 41.6C122.72 3.6 172.68 -16.58 210.39 16.94Z" />
					<g id="&lt;Group&gt;">
						<path id="&lt;Path&gt;" class="shp5" d="M221.72 133.6C221.3 133.57 220.7 133.52 219.92 133.45C218.76 133.28 217.01 133.07 214.88 132.42C210.6 131.18 204.72 128.14 199.1 122.84C196.29 120.2 193.46 117.11 190.83 113.6C188.19 110.09 185.57 106.26 183.21 102.13C180.82 98.01 178.52 93.67 176.36 89.19C174.23 84.69 172.21 80.08 170.25 75.45C168.28 70.82 166.51 66.13 164.69 61.56C162.87 57 161.14 52.5 159.36 48.23C157.55 43.97 155.75 39.96 153.47 36.66C151.32 33.57 148.32 31.34 145.14 30.74C141.94 30.1 138.68 30.86 135.98 31.89C133.26 32.96 130.99 34.3 129.18 35.47C126.77 37.07 124.95 38.45 123.72 39.6C123.97 39.26 124.34 38.79 124.85 38.19C125.61 37.29 126.76 35.97 128.4 34.47C130.04 32.97 132.16 31.24 134.96 29.71C137.72 28.19 141.36 26.83 145.64 27.2C147.76 27.39 149.97 28.08 151.94 29.3C153.9 30.48 155.65 32.1 157.19 33.96C160.12 37.54 162.13 41.83 164.18 46.09C166.2 50.4 168.09 54.89 169.94 59.46C171.8 64 173.69 68.62 175.58 73.23C177.46 77.84 179.39 82.41 181.42 86.84C183.41 91.28 185.44 95.61 187.61 99.68C189.79 103.75 191.95 107.64 194.29 111.14C196.62 114.64 198.98 117.84 201.42 120.56C203.87 123.27 206.3 125.59 208.69 127.36C211.07 129.13 213.31 130.48 215.27 131.37C217.24 132.27 218.86 132.81 219.97 133.15C220.73 133.35 221.32 133.5 221.72 133.6Z" />
					</g>
					<path id="&lt;Path&gt;" class="shp5" d="M104.72 175.6C102.05 191.6 95.05 198.6 83.72 196.6C88.39 195.94 92.05 191.6 94.72 183.6C86.72 195.6 79.05 197.27 71.72 188.6C106.72 153.6 85.72 87.6 90.72 46.6C94.16 18.42 119.46 23.3 126.59 30.59C128.75 32.8 127.79 36.47 123.72 41.6C96.72 43.6 108.72 151.6 104.72 175.6Z" />
				</g>
			</g>
		</g>
	</g>
</svg>