<svg version="1.2" baseProfile="tiny-ps" xmlns="http://www.w3.org/2000/svg" viewBox="0 0 307 322" width="307" height="322">
	<title>OBJECTS</title>
	<defs>
		<clipPath clipPathUnits="userSpaceOnUse" id="cp1">
			<path d="M306.29 321.77L0.81 321.77C3.81 302.8 9.3 282.58 17.29 261.12C27.39 233.96 81.09 218.77 105.35 209.09L154.39 246.94L189.85 206.97C190.98 206.38 192.12 205.8 193.21 205.16C209.35 214.59 278.23 229.99 289.82 261.12C297.8 282.58 303.29 302.8 306.29 321.77Z" />
		</clipPath>
	</defs>
	<style>
		tspan { white-space:pre }
		.shp0 { fill: #fddec0 } 
		.shp1 { fill: #e2c6af } 
		.shp2 { fill: #fc6a5a } 
		.shp3 { fill: none;stroke: #f99787;stroke-width: 6 } 
		.shp4 { fill: none;stroke: #f99787;stroke-width: 2 } 
		.shp5 { fill: #bc7068 } 
		.shp6 { fill: #f99787 } 
		.shp7 { fill: #ffffff } 
		.shp8 { fill: #352c38 } 
	</style>
	<g id="OBJECTS">
		<g id="&lt;Group&gt;">
			<g id="&lt;Group&gt;">
				<g id="&lt;Group&gt;">
					<path id="&lt;Path&gt;" class="shp0" d="M304.06 321.77L153.92 321.77L150.95 321.77L0.81 321.77C3.79 302.94 9.24 282.87 17.17 261.56C29.06 229.6 101.79 214.34 114.53 205.08C125.43 197.15 129.15 180.05 125.68 153.79L152.44 154.5L179.19 153.79C175.73 180.05 179.44 197.15 190.34 205.08C203.08 214.34 275.82 229.6 287.71 261.56C295.64 282.87 301.09 302.94 304.06 321.77Z" />
					<path id="&lt;Path&gt;" class="shp1" d="M125.68 153.79L152.44 154.5L179.19 153.79C178.47 159.32 178.23 165.46 178.5 172.21C171.85 178.12 164.69 183.37 156.75 187.82C145.84 193.92 133.25 196.46 120.72 197.74C126.5 187.13 128.15 172.48 125.68 153.79Z" />
				</g>
				<g id="&lt;Group&gt;">
					<g id="&lt;Group&gt;">
						<path id="&lt;Path&gt;" class="shp2" d="M306.29 321.77L0.81 321.77C3.81 302.8 9.3 282.58 17.29 261.12C27.39 233.96 81.09 218.77 105.35 209.09L154.39 246.94L189.85 206.97C190.98 206.38 192.12 205.8 193.21 205.16C209.35 214.59 278.23 229.99 289.82 261.12C297.8 282.58 303.29 302.8 306.29 321.77Z" />
						<g id="&lt;Clip Group&gt;" clip-path="url(#cp1)">
							<path id="&lt;Path&gt;" class="shp3" d="M3.05 298.6L305.05 298.6" />
							<path id="&lt;Path&gt;" class="shp4" d="M3.05 307.94L305.05 307.94" />
						</g>
					</g>
					<g id="&lt;Group&gt;">
						<path id="&lt;Path&gt;" class="shp5" d="M143.05 224.94L154.39 246.94L162.39 222.27L168.39 234.27L153.72 249.6L137.05 234.94L143.05 224.94Z" />
						<path id="&lt;Path&gt;" class="shp6" d="M111.72 193.6L143.05 224.94L132.39 252.94L102.39 209.6L111.72 193.6Z" />
						<path id="&lt;Path&gt;" class="shp6" d="M201.05 206.27L173.05 250.27L162.39 222.27L193.72 190.94L201.05 206.27Z" />
					</g>
				</g>
			</g>
			<g id="&lt;Group&gt;">
				<g id="&lt;Group&gt;">
					<path id="&lt;Path&gt;" class="shp1" d="M99.88 117.49C92.23 119.72 84.08 112.11 82.24 98.06C80.41 84.09 90.99 82.52 92 82.4C92.95 82.08 103.19 78.98 107.51 92.38C111.85 105.87 107.74 116.24 99.88 117.49Z" />
					<path id="&lt;Path&gt;" class="shp1" d="M191.36 91.05C195.68 77.64 205.91 80.75 206.87 81.07C207.88 81.19 218.45 82.76 216.63 96.73C214.79 110.78 206.63 118.39 198.99 116.15C191.12 114.91 187.01 104.54 191.36 91.05Z" />
					<path id="&lt;Path&gt;" class="shp0" d="M150.7 166.91C117.39 169.03 91.06 130.42 96.44 71.29C101.8 12.52 146.48 15.81 150.7 16.25C154.91 15.81 199.59 12.52 204.95 71.29C210.33 130.42 184 169.03 150.7 166.91Z" />
				</g>
				<g id="&lt;Group&gt;">
					<g id="&lt;Group&gt;">
						<path id="&lt;Path&gt;" class="shp1" d="M157.08 91.36C157.95 93.22 158.6 95.1 159.16 97C159.47 97.95 159.68 98.91 159.94 99.86C160.19 100.81 160.36 101.78 160.58 102.74C160.99 104.66 161.3 106.6 161.54 108.54C161.81 110.48 161.94 112.44 162.08 114.4L162.15 115.42L161.57 115.87C159.09 117.76 156.56 119.59 153.66 121.03C155.26 118.21 157.23 115.79 159.25 113.42L158.74 114.88C158.32 112.96 157.9 111.04 157.61 109.1C157.3 107.17 157.06 105.22 156.91 103.26C156.85 102.28 156.74 101.31 156.72 100.32C156.7 99.33 156.63 98.35 156.66 97.36C156.67 95.38 156.77 93.38 157.08 91.36Z" />
					</g>
					<path id="&lt;Path&gt;" class="shp7" d="M124.82 129.68L177.85 129.13C163.71 143.04 146.04 143.23 124.82 129.68Z" />
					<g id="&lt;Group&gt;">
						<path id="&lt;Path&gt;" class="shp1" d="M138.42 140.33C138.8 140.42 139.31 140.56 139.95 140.74C140.92 140.98 142.29 141.54 143.96 141.81C144.79 141.96 145.68 142.13 146.61 142.33C147.53 142.59 148.58 142.52 149.6 142.66C150.64 142.76 151.71 142.91 152.8 142.82C153.89 142.77 155 142.78 156.1 142.7C157.2 142.53 158.29 142.35 159.36 142.18C160.45 142.08 161.44 141.62 162.45 141.36C163.43 141.04 164.44 140.85 165.28 140.38C166.14 139.97 166.98 139.6 167.76 139.27C168.56 138.97 169.18 138.5 169.78 138.16C170.37 137.8 170.89 137.49 171.32 137.23C171.89 136.89 172.35 136.62 172.7 136.44C172.43 136.71 172.05 137.08 171.56 137.53C171.18 137.88 170.73 138.29 170.21 138.77C169.68 139.24 169.12 139.85 168.34 140.25C167.6 140.72 166.79 141.22 165.92 141.73C165.08 142.31 164.06 142.64 163.02 143.03C162.5 143.22 161.97 143.42 161.44 143.61L160.63 143.91L159.77 144.07C158.63 144.27 157.46 144.48 156.3 144.69C155.12 144.75 153.94 144.73 152.77 144.74C151.61 144.83 150.48 144.56 149.39 144.41C148.31 144.2 147.25 144.15 146.28 143.78C145.31 143.48 144.41 143.17 143.58 142.89C142.73 142.64 142.03 142.28 141.42 141.94C140.8 141.62 140.25 141.33 139.81 141.1C139.22 140.79 138.75 140.53 138.42 140.33Z" />
					</g>
					<g id="&lt;Group&gt;">
						<path id="&lt;Path&gt;" class="shp8" d="M126.57 84.23C128.59 84.23 130.24 87.82 130.24 92.25C130.24 96.67 128.59 100.26 126.57 100.26C124.54 100.26 122.9 96.67 122.9 92.25C122.9 87.82 124.54 84.23 126.57 84.23Z" />
						<path id="&lt;Path&gt;" class="shp8" d="M176.99 84.23C179.02 84.23 180.66 87.82 180.66 92.25C180.66 96.67 179.02 100.26 176.99 100.26C174.97 100.26 173.32 96.67 173.32 92.25C173.32 87.82 174.97 84.23 176.99 84.23Z" />
					</g>
					<g id="&lt;Group&gt;">
						<path id="&lt;Path&gt;" class="shp8" d="M113.89 79.13C114.31 77.85 115.19 76.47 116.51 74.98C117.03 74.46 117.55 73.82 118.24 73.3C118.9 72.74 119.65 72.2 120.49 71.72C121.29 71.19 122.27 70.86 123.21 70.46C124.23 70.21 125.24 69.85 126.34 69.83C126.88 69.8 127.42 69.76 127.95 69.75C128.49 69.8 129.03 69.89 129.56 69.96C130.63 70.03 131.58 70.52 132.52 70.84C133.46 71.19 134.21 71.81 134.96 72.27C135.73 72.72 136.23 73.43 136.77 73.94C137.3 74.48 137.77 74.98 138.06 75.52C138.39 76.03 138.64 76.49 138.85 76.87C139.13 77.37 139.33 77.77 139.46 78.06C139.15 77.92 138.74 77.72 138.25 77.46C137.88 77.26 137.43 77.02 136.96 76.73C136.51 76.41 135.9 76.2 135.31 75.9C134.68 75.67 134.1 75.24 133.39 75.07C132.69 74.89 132.02 74.52 131.27 74.41C130.52 74.31 129.8 74.02 129.02 74.06C128.64 74.04 128.26 74.02 127.87 73.98L126.71 74.07C125.93 74.04 125.16 74.34 124.38 74.42C123.63 74.69 122.84 74.8 122.11 75.13C121.36 75.38 120.64 75.67 119.96 75.99C119.26 76.27 118.64 76.63 118.01 76.9C117.41 77.22 116.85 77.51 116.36 77.77C115.85 78.05 115.42 78.29 115.06 78.48C114.56 78.76 114.17 78.97 113.89 79.13Z" />
					</g>
					<g id="&lt;Group&gt;">
						<path id="&lt;Path&gt;" class="shp8" d="M164.67 79.13C165.1 77.85 165.97 76.47 167.29 74.98C167.81 74.46 168.34 73.82 169.03 73.3C169.68 72.74 170.43 72.2 171.27 71.72C172.07 71.19 173.05 70.86 174 70.46C175.01 70.21 176.02 69.85 177.12 69.83C177.66 69.8 178.2 69.76 178.74 69.75C179.27 69.8 179.81 69.89 180.34 69.96C181.41 70.03 182.37 70.52 183.31 70.84C184.24 71.19 184.99 71.81 185.74 72.27C186.52 72.72 187.01 73.43 187.56 73.94C188.08 74.48 188.55 74.98 188.84 75.52C189.18 76.03 189.43 76.49 189.64 76.87C189.91 77.37 190.11 77.77 190.24 78.06C189.93 77.92 189.53 77.72 189.03 77.46C188.66 77.26 188.22 77.02 187.75 76.73C187.29 76.41 186.68 76.2 186.09 75.9C185.47 75.67 184.89 75.24 184.17 75.07C183.47 74.89 182.8 74.52 182.05 74.41C181.3 74.31 180.58 74.02 179.8 74.06C179.42 74.04 179.04 74.02 178.66 73.98L177.49 74.07C176.71 74.04 175.95 74.34 175.16 74.42C174.41 74.69 173.62 74.8 172.89 75.13C172.15 75.38 171.43 75.67 170.75 75.99C170.05 76.27 169.42 76.63 168.79 76.9C168.19 77.22 167.63 77.51 167.14 77.77C166.64 78.05 166.2 78.29 165.84 78.48C165.34 78.76 164.95 78.97 164.67 79.13Z" />
					</g>
				</g>
				<g id="&lt;Group&gt;">
					<path id="&lt;Path&gt;" class="shp8" d="M102.39 78.94L101.72 110.27L97.05 110.27L95.3 94.58C95.3 84.36 92.8 80.89 87.8 84.19C81.82 72.07 80.19 58.13 82.9 42.36C86.17 23.32 94.92 16.2 109.15 21.01C121.15 8.34 158.15 -12.71 192.82 10.62C215.93 26.18 222.76 48.3 213.3 76.98C204.86 66.76 199.22 60.08 196.39 56.94C200.83 63.6 201.28 72.71 197.72 84.27C188.83 78.05 180.61 66.71 173.05 50.27C178.39 58.71 179.94 66.94 177.72 74.94C166.16 72.71 157.05 69.16 150.39 64.27L156.39 72.94C139.5 70.71 125.68 62.54 114.92 48.42C114.48 65.75 110.3 75.92 102.39 78.94Z" />
					<path id="&lt;Path&gt;" class="shp8" d="M196.39 56.94C192.22 40.29 195.33 42.29 205.72 62.94C207.79 82.83 207.3 98.26 204.24 109.23C202.56 109.29 200.88 109.34 199.2 109.4C199.77 102.99 201.55 77.56 196.39 56.94Z" />
				</g>
			</g>
		</g>
	</g>
</svg>