<svg version="1.2" baseProfile="tiny-ps" xmlns="http://www.w3.org/2000/svg" viewBox="0 0 307 355" width="307" height="355">
	<title>OBJECTS</title>
	<defs>
		<clipPath clipPathUnits="userSpaceOnUse" id="cp1">
			<path d="M306.19 354.77L154.95 354.77L151.95 354.77L0.71 354.77C3.7 335.8 9.2 315.58 17.18 294.12C27.7 265.85 85.46 250.55 108.08 240.92C119.77 246.65 133.43 249.95 148.02 249.95C164.81 249.95 180.36 245.58 193.11 238.16C209.25 247.59 278.13 262.99 289.71 294.12C297.7 315.58 303.19 335.8 306.19 354.77Z" />
		</clipPath>
	</defs>
	<style>
		tspan { white-space:pre }
		.shp0 { fill: #965450 } 
		.shp1 { fill: #76413b } 
		.shp2 { fill: #ffa65b } 
		.shp3 { fill: none;stroke: #765e69;stroke-width: 2.826 } 
		.shp4 { fill: none;stroke: #765e69;stroke-width: 2 } 
		.shp5 { fill: #352c38 } 
		.shp6 { fill: #ffffff } 
	</style>
	<g id="OBJECTS">
		<g id="&lt;Group&gt;">
			<g id="&lt;Group&gt;">
				<g id="&lt;Group&gt;">
					<path id="&lt;Path&gt;" class="shp0" d="M303.96 354.77L153.82 354.77L150.85 354.77L0.71 354.77C3.68 335.94 9.13 315.87 17.06 294.56C28.95 262.6 101.69 247.34 114.43 238.08C125.33 230.15 129.04 213.05 125.58 186.79L152.33 187.5L179.09 186.79C175.62 213.05 179.34 230.15 190.24 238.08C202.98 247.34 275.71 262.6 287.6 294.56C295.53 315.87 300.98 335.94 303.96 354.77Z" />
					<path id="&lt;Path&gt;" class="shp1" d="M125.58 186.79L152.33 187.5L179.09 186.79C178.36 192.32 178.13 198.46 178.39 205.21C171.75 211.12 164.59 216.37 156.64 220.82C145.74 226.92 133.14 229.46 120.62 230.74C126.39 220.13 128.04 205.48 125.58 186.79Z" />
				</g>
				<g id="&lt;Group&gt;">
					<path id="&lt;Path&gt;" class="shp2" d="M306.19 354.77L154.95 354.77L151.95 354.77L0.71 354.77C3.7 335.8 9.2 315.58 17.18 294.12C27.7 265.85 85.46 250.55 108.08 240.92C119.77 246.65 133.43 249.95 148.02 249.95C164.81 249.95 180.36 245.58 193.11 238.16C209.25 247.59 278.13 262.99 289.71 294.12C297.7 315.58 303.19 335.8 306.19 354.77Z" />
					<g id="&lt;Group&gt;">
						<g id="&lt;Clip Group&gt;" clip-path="url(#cp1)">
							<g id="&lt;Group&gt;">
								<path id="&lt;Path&gt;" class="shp3" d="M260.96 240.6L260.96 385.6" />
								<path id="&lt;Path&gt;" class="shp3" d="M242.17 240.6L242.17 385.6" />
								<path id="&lt;Path&gt;" class="shp3" d="M223.38 240.6L223.38 385.6" />
								<path id="&lt;Path&gt;" class="shp3" d="M204.6 240.6L204.6 385.6" />
								<path id="&lt;Path&gt;" class="shp3" d="M185.81 240.6L185.81 385.6" />
								<path id="&lt;Path&gt;" class="shp3" d="M167.03 240.6L167.03 385.6" />
								<path id="&lt;Path&gt;" class="shp3" d="M148.24 240.6L148.24 385.6" />
								<path id="&lt;Path&gt;" class="shp3" d="M129.46 240.6L129.46 385.6" />
								<path id="&lt;Path&gt;" class="shp3" d="M110.67 240.6L110.67 385.6" />
								<path id="&lt;Path&gt;" class="shp3" d="M91.88 240.6L91.88 385.6" />
								<path id="&lt;Path&gt;" class="shp3" d="M73.1 240.6L73.1 385.6" />
								<path id="&lt;Path&gt;" class="shp3" d="M54.31 240.6L54.31 385.6" />
								<path id="&lt;Path&gt;" class="shp3" d="M35.53 240.6L35.53 385.6" />
								<path id="&lt;Path&gt;" class="shp3" d="M16.74 240.6L16.74 385.6" />
								<path id="&lt;Path&gt;" class="shp3" d="M279.74 240.6L279.74 385.6" />
								<path id="&lt;Path&gt;" class="shp4" d="M-9.26 283.39L308.72 283.39" />
								<path id="&lt;Path&gt;" class="shp4" d="M-9.26 302.18L308.72 302.18" />
								<path id="&lt;Path&gt;" class="shp4" d="M-9.26 320.96L308.72 320.96" />
								<path id="&lt;Path&gt;" class="shp4" d="M-9.26 339.75L308.72 339.75" />
								<path id="&lt;Path&gt;" class="shp4" d="M-9.26 264.61L308.72 264.61" />
							</g>
						</g>
					</g>
				</g>
			</g>
			<g id="&lt;Group&gt;">
				<g id="&lt;Group&gt;">
					<path id="&lt;Path&gt;" class="shp1" d="M99.77 150.49C92.13 152.72 83.98 145.11 82.14 131.06C80.31 117.09 90.89 115.52 91.89 115.4C92.85 115.08 103.08 111.98 107.4 125.38C111.75 138.87 107.64 149.24 99.77 150.49Z" />
					<path id="&lt;Path&gt;" class="shp1" d="M195.92 125.38C200.24 111.98 210.48 115.08 211.43 115.4C212.44 115.52 223.02 117.09 221.19 131.06C219.35 145.11 211.2 152.72 203.55 150.49C195.69 149.24 191.57 138.87 195.92 125.38Z" />
					<path id="&lt;Path&gt;" class="shp0" d="M150.59 199.91C117.29 202.03 90.95 163.42 96.34 104.29C101.7 45.52 146.38 48.81 150.59 49.25C154.81 48.81 199.49 45.52 204.84 104.29C210.23 163.42 183.9 202.03 150.59 199.91Z" />
				</g>
				<g id="&lt;Group&gt;">
					<g id="&lt;Group&gt;">
						<path id="&lt;Path&gt;" class="shp1" d="M153.56 154.03C153.71 153.64 153.92 153.29 154.12 152.94C154.3 152.57 154.53 152.24 154.75 151.91C155.2 151.26 155.69 150.66 156.21 150.08C156.75 149.52 157.27 148.95 157.87 148.45C158.44 147.92 159.05 147.45 159.69 147L159.42 147.77C158.95 143.88 158.5 139.98 158.08 136.08C157.71 132.17 157.27 128.28 156.98 124.36C157.79 128.2 158.46 132.07 159.2 135.92C159.89 139.78 160.56 143.65 161.19 147.52L161.25 147.88L160.92 148.29C160.43 148.9 159.92 149.49 159.37 150.03C158.84 150.6 158.24 151.1 157.65 151.6C157.04 152.08 156.41 152.54 155.74 152.96C155.4 153.16 155.06 153.37 154.69 153.54C154.32 153.71 153.97 153.9 153.56 154.03Z" />
					</g>
					<g id="&lt;Group&gt;">
						<path id="&lt;Path&gt;" class="shp5" d="M126.46 117.23C128.49 117.23 130.13 120.82 130.13 125.25C130.13 129.67 128.49 133.26 126.46 133.26C124.44 133.26 122.79 129.67 122.79 125.25C122.79 120.82 124.44 117.23 126.46 117.23Z" />
						<path id="&lt;Path&gt;" class="shp5" d="M176.89 117.23C178.92 117.23 180.56 120.82 180.56 125.25C180.56 129.67 178.92 133.26 176.89 133.26C174.86 133.26 173.22 129.67 173.22 125.25C173.22 120.82 174.86 117.23 176.89 117.23Z" />
					</g>
					<g id="&lt;Group&gt;">
						<path id="&lt;Path&gt;" class="shp5" d="M113.78 112.13C114.21 110.85 115.08 109.47 116.41 107.98C116.93 107.46 117.45 106.82 118.14 106.3C118.8 105.74 119.54 105.2 120.39 104.72C121.19 104.19 122.16 103.86 123.11 103.46C124.13 103.21 125.14 102.85 126.23 102.83C126.77 102.8 127.31 102.76 127.85 102.75C128.39 102.8 128.92 102.89 129.45 102.96C130.53 103.03 131.48 103.52 132.42 103.84C133.36 104.19 134.1 104.81 134.86 105.27C135.63 105.72 136.12 106.43 136.67 106.94C137.2 107.48 137.66 107.98 137.96 108.52C138.29 109.03 138.54 109.49 138.75 109.87C139.02 110.37 139.23 110.77 139.35 111.06C139.04 110.92 138.64 110.72 138.14 110.46C137.78 110.26 137.33 110.02 136.86 109.73C136.4 109.41 135.8 109.2 135.2 108.9C134.58 108.67 134 108.24 133.28 108.07C132.58 107.89 131.91 107.52 131.17 107.41C130.42 107.31 129.69 107.02 128.92 107.06C128.54 107.04 128.15 107.02 127.77 106.98L126.61 107.07C125.83 107.04 125.06 107.34 124.28 107.42C123.52 107.69 122.73 107.8 122.01 108.13C121.26 108.38 120.54 108.67 119.86 108.99C119.16 109.27 118.53 109.63 117.91 109.9C117.3 110.22 116.75 110.51 116.25 110.77C115.75 111.05 115.31 111.29 114.95 111.48C114.46 111.76 114.07 111.97 113.78 112.13Z" />
					</g>
					<g id="&lt;Group&gt;">
						<path id="&lt;Path&gt;" class="shp5" d="M164.57 112.13C164.99 110.85 165.87 109.47 167.19 107.98C167.71 107.46 168.23 106.82 168.92 106.3C169.58 105.74 170.33 105.2 171.17 104.72C171.97 104.19 172.95 103.86 173.89 103.46C174.91 103.21 175.92 102.85 177.01 102.83C177.55 102.8 178.1 102.76 178.63 102.75C179.17 102.8 179.71 102.89 180.23 102.96C181.31 103.03 182.26 103.52 183.2 103.84C184.14 104.19 184.89 104.81 185.64 105.27C186.41 105.72 186.91 106.43 187.45 106.94C187.98 107.48 188.45 107.98 188.74 108.52C189.07 109.03 189.32 109.49 189.53 109.87C189.81 110.37 190.01 110.77 190.14 111.06C189.82 110.92 189.42 110.72 188.93 110.46C188.56 110.26 188.11 110.02 187.64 109.73C187.19 109.41 186.58 109.2 185.99 108.9C185.36 108.67 184.78 108.24 184.07 108.07C183.36 107.89 182.7 107.52 181.95 107.41C181.2 107.31 180.48 107.02 179.7 107.06C179.32 107.04 178.94 107.02 178.55 106.98L177.39 107.07C176.61 107.04 175.84 107.34 175.06 107.42C174.31 107.69 173.51 107.8 172.79 108.13C172.04 108.38 171.32 108.67 170.64 108.99C169.94 109.27 169.32 109.63 168.69 109.9C168.08 110.22 167.53 110.51 167.04 110.77C166.53 111.05 166.1 111.29 165.74 111.48C165.24 111.76 164.85 111.97 164.57 112.13Z" />
					</g>
					<path id="&lt;Path&gt;" class="shp6" d="M128.22 162.6L177.75 162.13C163.4 175.44 146.89 175.6 128.22 162.6Z" />
				</g>
				<g id="&lt;Group&gt;">
					<path id="&lt;Path&gt;" class="shp5" d="M112.72 77.6C112.72 93.6 109.55 102.77 103.22 105.1C100.22 173.6 116.72 184.1 121.22 184.1C125.72 184.1 122.22 175.6 121.72 162.6C121.39 153.94 132.22 151.44 154.22 155.1C154.55 154.77 160.89 154.44 173.22 154.1C191.72 153.6 175.72 190.1 185.22 183.6C192.79 178.42 197.46 154.09 199.22 110.6C193.22 107.6 189.22 93.94 187.22 69.6L205.22 77.1C210.22 151.6 199.28 193.18 192.22 201.1C175.89 219.44 153.05 222.94 123.72 211.6C111.32 206.91 102.99 195.91 98.72 178.6C93.05 155.6 91.22 119.6 93.22 70.6C106.22 54.23 112.72 56.56 112.72 77.6Z" />
					<path id="&lt;Path&gt;" class="shp5" d="M93.6 114.91C89.72 92.1 80.72 73.1 92.72 39.6C102.53 12.21 167.13 -2.22 171.72 0.6C176.05 3.27 160.22 14.1 124.22 33.1C150.22 2.1 193.01 1.95 201.22 8.1C207.89 13.1 205.55 18.77 194.22 25.1C205.55 18.44 212.55 17.44 215.22 22.1C217.89 26.77 212.89 31.77 200.22 37.1C223.22 34.6 233.29 37.61 232.72 46.1C232.39 51.1 227.05 53.77 216.72 54.1C232.22 60.6 232.22 74.1 227.72 74.6C224.72 74.94 219.72 71.77 212.72 65.1C223.05 78.1 224.05 85.6 215.72 87.6C207.39 89.6 201.22 83.1 197.22 68.1C204.55 82.1 203.89 89.44 195.22 90.1C186.55 90.77 178.72 83.94 171.72 69.6C179.72 82.94 179.05 89.77 169.72 90.1C160.39 90.44 151.22 83.6 142.22 69.6C148.55 80.6 148.55 86.1 142.22 86.1C130.81 86.1 120.31 79.6 110.72 66.6L93.6 114.91Z" />
				</g>
			</g>
		</g>
	</g>
</svg>