<svg version="1.2" baseProfile="tiny-ps" xmlns="http://www.w3.org/2000/svg" viewBox="0 0 307 401" width="307" height="401">
	<title>OBJECTS</title>
	<defs>
		<clipPath clipPathUnits="userSpaceOnUse" id="cp1">
			<path d="M306.2 400.75L154.96 400.75L151.97 400.75L0.73 400.75C3.72 381.78 9.21 361.56 17.2 340.1C21.55 328.4 34.01 318.92 48.71 311.15C74.97 329.07 112.17 340.27 153.47 340.27C194.76 340.27 231.97 329.07 258.23 311.15C272.93 318.92 285.38 328.4 289.73 340.1C297.72 361.56 303.21 381.78 306.2 400.75Z" />
		</clipPath>
	</defs>
	<style>
		tspan { white-space:pre }
		.shp0 { fill: #965450 } 
		.shp1 { fill: #76413b } 
		.shp2 { fill: #5d8584 } 
		.shp3 { fill: none;stroke: #ffffff;stroke-width: 1.771 } 
		.shp4 { fill: #ffffff } 
		.shp5 { fill: #352c38 } 
		.shp6 { fill: #ffa65b } 
	</style>
	<g id="OBJECTS">
		<g id="&lt;Group&gt;">
			<g id="&lt;Group&gt;">
				<g id="&lt;Group&gt;">
					<path id="&lt;Path&gt;" class="shp0" d="M303.97 400.75L153.84 400.75L150.86 400.75L0.73 400.75C3.7 381.92 9.15 361.85 17.08 340.54C28.97 308.58 101.71 293.32 114.44 284.06C125.35 276.13 129.06 259.03 125.59 232.77L152.35 233.48L179.11 232.77C175.64 259.03 179.36 276.13 190.26 284.06C202.99 293.32 275.73 308.58 287.62 340.54C295.55 361.85 301 381.92 303.97 400.75Z" />
					<path id="&lt;Path&gt;" class="shp1" d="M125.59 232.77L152.35 233.48L179.11 232.77C178.38 238.3 178.15 244.44 178.41 251.19C171.77 257.1 164.61 262.35 156.66 266.8C145.75 272.9 133.16 275.44 120.64 276.72C126.41 266.11 128.06 251.46 125.59 232.77Z" />
				</g>
				<g id="&lt;Group&gt;">
					<path id="&lt;Path&gt;" class="shp2" d="M306.2 400.75L154.96 400.75L151.97 400.75L0.73 400.75C3.72 381.78 9.21 361.56 17.2 340.1C21.55 328.4 34.01 318.92 48.71 311.15C74.97 329.07 112.17 340.27 153.47 340.27C194.76 340.27 231.97 329.07 258.23 311.15C272.93 318.92 285.38 328.4 289.73 340.1C297.72 361.56 303.21 381.78 306.2 400.75Z" />
					<g id="&lt;Clip Group&gt;" clip-path="url(#cp1)">
						<g id="&lt;Group&gt;">
							<path id="&lt;Path&gt;" class="shp3" d="M4.72 328.94L299.39 328.94" />
							<path id="&lt;Path&gt;" class="shp3" d="M4.72 390.27L307.39 390.27" />
							<path id="&lt;Path&gt;" class="shp3" d="M-8.61 360.53L318.05 360.53" />
						</g>
					</g>
				</g>
			</g>
			<g id="&lt;Group&gt;">
				<g id="&lt;Group&gt;">
					<path id="&lt;Path&gt;" class="shp1" d="M99.79 196.47C92.14 198.7 83.99 191.09 82.15 177.04C80.33 163.07 90.9 161.5 91.91 161.38C92.87 161.06 103.1 157.96 107.42 171.36C111.77 184.85 107.66 195.22 99.79 196.47Z" />
					<path id="&lt;Path&gt;" class="shp1" d="M195.94 171.36C200.26 157.96 210.49 161.06 211.45 161.38C212.46 161.5 223.03 163.07 221.21 177.04C219.37 191.09 211.22 198.7 203.57 196.47C195.7 195.22 191.59 184.85 195.94 171.36Z" />
					<path id="&lt;Path&gt;" class="shp0" d="M150.61 245.89C117.31 248.01 90.97 209.4 96.36 150.27C101.71 91.5 146.39 94.79 150.61 95.23C154.82 94.79 199.51 91.5 204.86 150.27C210.25 209.4 183.91 248.01 150.61 245.89Z" />
				</g>
				<g id="&lt;Group&gt;">
					<g id="&lt;Group&gt;">
						<path id="&lt;Path&gt;" class="shp1" d="M156.99 170.34C157.31 171.28 157.56 172.24 157.82 173.19C158.09 174.14 158.31 175.1 158.54 176.06C158.98 177.97 159.35 179.9 159.69 181.83C160.01 183.77 160.34 185.7 160.57 187.65C160.84 189.59 161.04 191.54 161.21 193.49L161.25 194L160.94 194.27C159.76 195.28 158.55 196.26 157.34 197.23C156.08 198.16 154.88 199.14 153.58 200.01C154.52 198.76 155.57 197.61 156.56 196.41C157.59 195.24 158.64 194.1 159.71 192.97L159.44 193.75C159.05 191.82 158.7 189.89 158.41 187.96C158.09 186.02 157.86 184.07 157.62 182.13C157.41 180.18 157.23 178.22 157.11 176.26C157.06 175.28 157 174.3 157 173.31C156.99 172.32 156.95 171.33 156.99 170.34Z" />
					</g>
					<path id="&lt;Path&gt;" class="shp4" d="M124.74 208.66L177.76 208.11C163.63 222.02 145.95 222.21 124.74 208.66Z" />
					<g id="&lt;Group&gt;">
						<path id="&lt;Path&gt;" class="shp1" d="M138.34 219.31C138.71 219.4 139.23 219.52 139.87 219.7C140.85 219.93 142.23 220.47 143.89 220.72C144.73 220.87 145.62 221.03 146.55 221.23C147.46 221.48 148.51 221.4 149.53 221.54C150.57 221.64 151.63 221.78 152.72 221.68C153.81 221.64 154.91 221.64 156.01 221.57C157.09 221.39 158.18 221.22 159.25 221.05C160.34 220.96 161.32 220.5 162.33 220.25C163.31 219.93 164.32 219.74 165.16 219.28C166.02 218.88 166.86 218.52 167.64 218.19C168.44 217.9 169.06 217.44 169.67 217.1C170.27 216.75 170.79 216.44 171.22 216.19C171.8 215.85 172.26 215.6 172.61 215.42C172.35 215.69 171.97 216.07 171.49 216.53C171.11 216.88 170.66 217.3 170.15 217.78C169.62 218.26 169.07 218.88 168.29 219.29C167.55 219.76 166.74 220.27 165.87 220.78C165.03 221.37 164.01 221.71 162.97 222.1C162.45 222.3 161.92 222.5 161.38 222.7L160.57 223L159.71 223.15C158.56 223.36 157.39 223.57 156.22 223.78C155.04 223.85 153.85 223.82 152.69 223.83C151.51 223.92 150.39 223.65 149.29 223.49C148.21 223.28 147.14 223.22 146.18 222.84C145.21 222.54 144.3 222.22 143.47 221.93C142.62 221.68 141.93 221.3 141.32 220.96C140.7 220.63 140.16 220.34 139.71 220.1C139.12 219.78 138.66 219.52 138.34 219.31Z" />
					</g>
					<g id="&lt;Group&gt;">
						<path id="&lt;Path&gt;" class="shp5" d="M126.48 163.21C128.51 163.21 130.15 166.8 130.15 171.22C130.15 175.65 128.51 179.24 126.48 179.24C124.45 179.24 122.81 175.65 122.81 171.22C122.81 166.8 124.45 163.21 126.48 163.21Z" />
						<path id="&lt;Path&gt;" class="shp5" d="M176.91 163.21C178.93 163.21 180.58 166.8 180.58 171.22C180.58 175.65 178.93 179.24 176.91 179.24C174.88 179.24 173.24 175.65 173.24 171.22C173.24 166.8 174.88 163.21 176.91 163.21Z" />
					</g>
					<g id="&lt;Group&gt;">
						<path id="&lt;Path&gt;" class="shp5" d="M113.8 158.11C114.23 156.83 115.1 155.44 116.42 153.96C116.95 153.44 117.47 152.8 118.16 152.28C118.81 151.71 119.56 151.18 120.4 150.7C121.2 150.17 122.18 149.84 123.13 149.44C124.14 149.19 125.15 148.83 126.25 148.81C126.79 148.78 127.33 148.74 127.87 148.73C128.41 148.78 128.94 148.86 129.47 148.94C130.54 149.01 131.5 149.5 132.44 149.82C133.37 150.17 134.12 150.79 134.87 151.25C135.65 151.7 136.14 152.41 136.69 152.92C137.21 153.46 137.68 153.96 137.97 154.5C138.31 155 138.56 155.47 138.77 155.84C139.04 156.35 139.24 156.75 139.37 157.04C139.06 156.9 138.66 156.7 138.16 156.44C137.8 156.23 137.35 156 136.88 155.71C136.42 155.39 135.81 155.18 135.22 154.88C134.6 154.64 134.02 154.22 133.3 154.05C132.6 153.86 131.93 153.5 131.18 153.38C130.43 153.29 129.71 153 128.94 153.04C128.55 153.01 128.17 153 127.79 152.96L126.62 153.05C125.84 153.02 125.08 153.32 124.29 153.4C123.54 153.67 122.75 153.78 122.02 154.11C121.28 154.36 120.56 154.65 119.88 154.97C119.18 155.25 118.55 155.61 117.92 155.88C117.32 156.2 116.76 156.49 116.27 156.75C115.77 157.02 115.33 157.26 114.97 157.46C114.47 157.74 114.08 157.95 113.8 158.11Z" />
					</g>
					<g id="&lt;Group&gt;">
						<path id="&lt;Path&gt;" class="shp5" d="M164.58 158.11C165.01 156.83 165.88 155.44 167.21 153.96C167.73 153.44 168.25 152.8 168.94 152.28C169.6 151.71 170.34 151.18 171.19 150.7C171.99 150.17 172.96 149.84 173.91 149.44C174.93 149.19 175.94 148.83 177.03 148.81C177.57 148.78 178.11 148.74 178.65 148.73C179.19 148.78 179.72 148.86 180.25 148.94C181.33 149.01 182.28 149.5 183.22 149.82C184.16 150.17 184.9 150.79 185.66 151.25C186.43 151.7 186.92 152.41 187.47 152.92C188 153.46 188.46 153.96 188.76 154.5C189.09 155 189.34 155.47 189.55 155.84C189.83 156.35 190.03 156.75 190.15 157.04C189.84 156.9 189.44 156.7 188.94 156.44C188.58 156.23 188.13 156 187.66 155.71C187.2 155.39 186.6 155.18 186 154.88C185.38 154.64 184.8 154.22 184.08 154.05C183.38 153.86 182.71 153.5 181.97 153.38C181.22 153.29 180.5 153 179.72 153.04C179.34 153.01 178.95 153 178.57 152.96L177.41 153.05C176.63 153.02 175.86 153.32 175.08 153.4C174.32 153.67 173.53 153.78 172.81 154.11C172.06 154.36 171.34 154.65 170.66 154.97C169.96 155.25 169.33 155.61 168.71 155.88C168.1 156.2 167.55 156.49 167.05 156.75C166.55 157.02 166.11 157.26 165.75 157.46C165.26 157.74 164.87 157.95 164.58 158.11Z" />
					</g>
				</g>
				<g id="&lt;Group&gt;">
					<g id="&lt;Group&gt;">
						<path id="&lt;Path&gt;" class="shp5" d="M124.73 84.53C102.96 77.07 93.95 68.36 97.68 58.41C101.41 48.46 111.67 50.33 128.46 64.01C100.48 39.75 93.32 24.21 107.01 17.37C120.69 10.52 135.3 23.9 150.85 57.48C123.49 23.9 122.24 4.93 147.12 0.57C172 -3.78 175.42 18.61 157.38 67.74C166.09 32.91 177.6 17.99 191.9 22.96C210.86 29.56 203.09 46.66 168.58 74.27C189.72 56.24 202.47 49.08 206.83 52.82C213.36 58.41 197.76 72.53 180.7 84.53C155.52 102.26 155.52 101.33 124.73 84.53Z" />
						<path id="&lt;Path&gt;" class="shp6" d="M150.72 72.6C165.08 72.6 176.72 80.21 176.72 89.6C176.72 98.99 165.08 106.6 150.72 106.6C136.36 106.6 124.72 98.99 124.72 89.6C124.72 80.21 136.36 72.6 150.72 72.6Z" />
					</g>
					<g id="&lt;Group&gt;">
						<path id="&lt;Path&gt;" class="shp5" d="M150.25 83.26C58.17 80.03 89.72 184.6 96.72 186.6C101.39 187.94 102.72 176.27 100.72 151.6C133.39 142.27 149.64 129.53 149.48 113.39L150.25 83.26Z" />
						<path id="&lt;Path&gt;" class="shp5" d="M150.25 83.26C240.94 81.72 210.29 184.6 203.29 186.6C198.62 187.94 197.29 176.27 199.29 151.6C166.62 142.27 150.02 129.53 149.48 113.39L150.25 83.26Z" />
						<path id="&lt;Path&gt;" class="shp5" d="M168.17 146.52C139.48 129.18 144.9 101.18 151.68 84.47C152.25 84.66 152.87 84.81 153.51 84.91C147.22 104.92 149.38 117.22 164.55 135.29C176.86 149.95 178.07 153.69 168.17 146.52Z" />
						<path id="&lt;Path&gt;" class="shp5" d="M151.71 143.26C133.74 122.53 145.02 102.1 154.5 90.79C154.9 91.09 155.35 91.35 155.82 91.6C145.88 105.59 144.46 115.72 151.72 133.6C157.62 148.12 157.61 151.34 151.71 143.26Z" />
					</g>
				</g>
			</g>
		</g>
	</g>
</svg>