<svg version="1.2" baseProfile="tiny-ps" xmlns="http://www.w3.org/2000/svg" viewBox="0 0 306 337" width="306" height="337">
	<title>OBJECTS</title>
	<style>
		tspan { white-space:pre }
		.shp0 { fill: #ffac9d } 
		.shp1 { fill: #cc887f } 
		.shp2 { fill: #6f96bd } 
		.shp3 { fill: #85b7e0 } 
		.shp4 { fill: #ffffff } 
		.shp5 { fill: #352c38 } 
		.shp6 { fill: #965450 } 
		.shp7 { fill: #76413b } 
	</style>
	<g id="OBJECTS">
		<g id="&lt;Group&gt;">
			<g id="&lt;Group&gt;">
				<g id="&lt;Group&gt;">
					<path id="&lt;Path&gt;" class="shp0" d="M303.16 336.77L153.03 336.77L150.05 336.77L-0.08 336.77C2.89 317.94 8.34 297.87 16.27 276.56C28.16 244.6 100.9 229.34 113.63 220.08C124.54 212.15 128.25 195.05 124.78 168.79L151.54 169.5L178.3 168.79C174.83 195.05 178.55 212.15 189.45 220.08C202.18 229.34 274.92 244.6 286.81 276.56C294.74 297.87 300.19 317.94 303.16 336.77Z" />
					<path id="&lt;Path&gt;" class="shp1" d="M124.78 168.79L151.54 169.5L178.3 168.79C177.57 174.32 177.34 180.46 177.6 187.21C170.96 193.12 163.8 198.37 155.85 202.82C144.94 208.92 132.35 211.46 119.83 212.74C125.6 202.13 127.25 187.48 124.78 168.79Z" />
				</g>
				<g id="&lt;Group&gt;">
					<path id="&lt;Path&gt;" class="shp2" d="M305.39 336.77L154.15 336.77L151.16 336.77L-0.08 336.77C2.91 317.8 8.4 297.58 16.39 276.12C25.65 251.23 71.52 236.4 97.8 226.64C109.22 239.82 129.51 248.6 152.66 248.6C175.8 248.6 196.09 239.82 207.51 226.64C233.79 236.4 279.66 251.23 288.92 276.12C296.91 297.58 302.4 317.8 305.39 336.77Z" />
					<path id="&lt;Path&gt;" class="shp3" d="M87.25 228.5C91 227.13 94.55 225.84 97.8 224.64C109.22 237.82 129.51 246.6 152.66 246.6C175.8 246.6 196.09 237.82 207.51 224.64C210.72 225.83 214.22 227.09 217.9 228.45C207.1 245.11 181.91 256.8 152.56 256.8C123.24 256.8 98.07 245.14 87.25 228.5Z" />
				</g>
			</g>
			<g id="&lt;Group&gt;">
				<g id="&lt;Group&gt;">
					<path id="&lt;Path&gt;" class="shp1" d="M98.98 132.49C91.34 134.72 83.18 127.11 81.34 113.06C79.52 99.09 90.09 97.52 91.1 97.4C92.06 97.08 102.29 93.98 106.61 107.38C110.96 120.87 106.85 131.24 98.98 132.49Z" />
					<path id="&lt;Path&gt;" class="shp1" d="M193.13 107.38C197.45 93.98 207.68 97.08 208.64 97.4C209.64 97.52 220.22 99.09 218.39 113.06C216.56 127.11 208.4 134.72 200.76 132.49C192.89 131.24 188.78 120.87 193.13 107.38Z" />
					<path id="&lt;Path&gt;" class="shp0" d="M149.8 181.91C116.49 184.03 90.16 145.42 95.55 86.29C100.9 27.52 145.58 30.81 149.8 31.25C154.01 30.81 198.7 27.52 204.05 86.29C209.44 145.42 183.1 184.03 149.8 181.91Z" />
				</g>
				<g id="&lt;Group&gt;">
					<g id="&lt;Group&gt;">
						<path id="&lt;Path&gt;" class="shp1" d="M156.18 106.36C156.5 107.3 156.75 108.26 157.01 109.21C157.28 110.16 157.5 111.12 157.73 112.08C158.17 114 158.54 115.92 158.88 117.85C159.2 119.79 159.53 121.72 159.76 123.67C160.03 125.61 160.23 127.56 160.4 129.52L160.44 130.02L160.13 130.29C158.95 131.3 157.74 132.28 156.53 133.25C155.27 134.18 154.07 135.16 152.77 136.03C153.71 134.78 154.76 133.63 155.75 132.43C156.78 131.27 157.83 130.12 158.9 129L158.63 129.77C158.24 127.84 157.89 125.91 157.6 123.98C157.28 122.04 157.05 120.1 156.81 118.15C156.6 116.2 156.42 114.25 156.3 112.28C156.25 111.3 156.19 110.32 156.19 109.33C156.18 108.34 156.14 107.36 156.18 106.36Z" />
					</g>
					<path id="&lt;Path&gt;" class="shp4" d="M123.93 144.68L176.95 144.13C162.82 158.04 145.14 158.23 123.93 144.68Z" />
					<g id="&lt;Group&gt;">
						<path id="&lt;Path&gt;" class="shp1" d="M137.53 155.33C137.9 155.42 138.42 155.55 139.06 155.72C140.04 155.95 141.41 156.49 143.08 156.75C143.92 156.89 144.81 157.05 145.74 157.25C146.65 157.5 147.7 157.42 148.72 157.56C149.76 157.66 150.82 157.8 151.91 157.7C153 157.66 154.1 157.67 155.2 157.59C156.28 157.41 157.37 157.24 158.44 157.07C159.53 156.98 160.51 156.52 161.52 156.27C162.5 155.95 163.51 155.76 164.35 155.3C165.21 154.9 166.05 154.54 166.83 154.21C167.63 153.92 168.25 153.46 168.86 153.13C169.46 152.77 169.98 152.47 170.41 152.21C170.99 151.88 171.45 151.62 171.8 151.44C171.54 151.72 171.16 152.09 170.68 152.55C170.3 152.9 169.85 153.32 169.34 153.81C168.81 154.28 168.26 154.9 167.48 155.31C166.74 155.78 165.93 156.29 165.06 156.81C164.22 157.39 163.2 157.73 162.16 158.12C161.64 158.32 161.11 158.52 160.57 158.72L159.76 159.02L158.9 159.17C157.75 159.38 156.58 159.59 155.41 159.8C154.23 159.87 153.04 159.84 151.88 159.85C150.7 159.94 149.58 159.67 148.48 159.51C147.4 159.3 146.33 159.24 145.37 158.86C144.4 158.56 143.49 158.24 142.66 157.95C141.81 157.7 141.12 157.32 140.51 156.98C139.89 156.65 139.35 156.36 138.9 156.12C138.31 155.8 137.85 155.54 137.53 155.33Z" />
					</g>
					<g id="&lt;Group&gt;">
						<path id="&lt;Path&gt;" class="shp5" d="M125.67 99.23C127.7 99.23 129.34 102.82 129.34 107.25C129.34 111.67 127.7 115.26 125.67 115.26C123.64 115.26 122 111.67 122 107.25C122 102.82 123.64 99.23 125.67 99.23Z" />
						<path id="&lt;Path&gt;" class="shp5" d="M176.1 99.23C178.12 99.23 179.77 102.82 179.77 107.25C179.77 111.67 178.12 115.26 176.1 115.26C174.07 115.26 172.43 111.67 172.43 107.25C172.43 102.82 174.07 99.23 176.1 99.23Z" />
					</g>
					<g id="&lt;Group&gt;">
						<path id="&lt;Path&gt;" class="shp5" d="M112.99 94.13C113.42 92.85 114.29 91.47 115.61 89.98C116.14 89.46 116.66 88.82 117.35 88.3C118 87.74 118.75 87.2 119.59 86.72C120.39 86.19 121.37 85.86 122.32 85.46C123.33 85.21 124.34 84.85 125.44 84.83C125.98 84.8 126.52 84.76 127.06 84.75C127.6 84.8 128.13 84.89 128.66 84.96C129.73 85.03 130.69 85.52 131.63 85.84C132.56 86.19 133.31 86.81 134.06 87.27C134.84 87.72 135.33 88.43 135.88 88.94C136.4 89.48 136.87 89.98 137.16 90.52C137.5 91.03 137.75 91.49 137.96 91.87C138.23 92.37 138.43 92.77 138.56 93.06C138.25 92.92 137.85 92.72 137.35 92.46C136.99 92.26 136.54 92.02 136.07 91.73C135.61 91.41 135 91.2 134.41 90.9C133.79 90.67 133.21 90.24 132.49 90.07C131.79 89.89 131.12 89.52 130.37 89.41C129.62 89.31 128.9 89.02 128.13 89.06C127.74 89.04 127.36 89.02 126.98 88.98L125.81 89.07C125.03 89.04 124.27 89.34 123.48 89.42C122.73 89.69 121.94 89.8 121.21 90.13C120.47 90.38 119.75 90.67 119.07 90.99C118.37 91.27 117.74 91.63 117.11 91.9C116.51 92.22 115.95 92.51 115.46 92.77C114.96 93.05 114.52 93.29 114.16 93.48C113.66 93.76 113.27 93.97 112.99 94.13Z" />
					</g>
					<g id="&lt;Group&gt;">
						<path id="&lt;Path&gt;" class="shp5" d="M163.77 94.13C164.2 92.85 165.07 91.47 166.4 89.98C166.92 89.46 167.44 88.82 168.13 88.3C168.79 87.74 169.53 87.2 170.38 86.72C171.18 86.19 172.15 85.86 173.1 85.46C174.12 85.21 175.13 84.85 176.22 84.83C176.76 84.8 177.3 84.76 177.84 84.75C178.38 84.8 178.91 84.89 179.44 84.96C180.52 85.03 181.47 85.52 182.41 85.84C183.35 86.19 184.09 86.81 184.85 87.27C185.62 87.72 186.11 88.43 186.66 88.94C187.19 89.48 187.65 89.98 187.95 90.52C188.28 91.03 188.53 91.49 188.74 91.87C189.02 92.37 189.22 92.77 189.34 93.06C189.03 92.92 188.63 92.72 188.13 92.46C187.77 92.26 187.32 92.02 186.85 91.73C186.39 91.41 185.79 91.2 185.19 90.9C184.57 90.67 183.99 90.24 183.27 90.07C182.57 89.89 181.9 89.52 181.16 89.41C180.41 89.31 179.69 89.02 178.91 89.06C178.53 89.04 178.14 89.02 177.76 88.98L176.6 89.07C175.82 89.04 175.05 89.34 174.27 89.42C173.51 89.69 172.72 89.8 172 90.13C171.25 90.38 170.53 90.67 169.85 90.99C169.15 91.27 168.52 91.63 167.9 91.9C167.29 92.22 166.74 92.51 166.24 92.77C165.74 93.05 165.3 93.29 164.94 93.48C164.45 93.76 164.06 93.97 163.77 94.13Z" />
					</g>
				</g>
				<g id="&lt;Group&gt;">
					<path id="&lt;Path&gt;" class="shp6" d="M95.72 115.27C86.39 76.6 84.39 51.71 89.72 40.6C95.05 29.49 100.83 25.71 107.05 29.27C115.5 6.16 128.61 -3.18 146.39 1.27C173.05 7.94 188.39 19.94 202.39 7.94C202.39 15.05 199.72 20.16 194.39 23.27C205.5 23.27 213.28 17.94 217.72 7.27C224.36 30.07 220.35 45.47 205.68 53.47C206.78 81.96 206.79 101.45 205.72 111.94L199.72 111.27C197.5 96.16 195.72 79.05 194.39 59.94C171.28 72.38 145.72 67.71 117.72 45.94C121.72 60.6 115.72 72.6 99.72 81.94L101.72 112.6L95.72 115.27Z" />
					<path id="&lt;Path&gt;" class="shp7" d="M117.72 45.94C121.72 60.6 115.72 72.6 99.72 81.94L101.72 112.6L95.72 115.27C86.39 76.6 84.39 51.71 89.72 40.6C95.05 29.49 100.83 25.71 107.05 29.27C109.54 22.48 113.34 16.33 118.45 10.81C119.67 30.71 135.17 51.25 153.2 58.17C161.25 61.27 171.19 63.46 181.11 64.14C167.25 66.71 143.91 66.31 117.72 45.94Z" />
				</g>
			</g>
		</g>
	</g>
</svg>