<svg version="1.2" baseProfile="tiny-ps" xmlns="http://www.w3.org/2000/svg" viewBox="0 0 306 351" width="306" height="351">
	<title>OBJECTS</title>
	<style>
		tspan { white-space:pre }
		.shp0 { fill: #f19c7c } 
		.shp1 { fill: #d88971 } 
		.shp2 { fill: #5d8584 } 
		.shp3 { fill: #7badaa } 
		.shp4 { fill: #b26e59 } 
		.shp5 { fill: #ffffff } 
		.shp6 { fill: #352c38 } 
		.shp7 { fill: #fddec0 } 
		.shp8 { opacity: 0.102;fill: #352c38 } 
	</style>
	<g id="OBJECTS">
		<g id="&lt;Group&gt;">
			<g id="&lt;Group&gt;">
				<g id="&lt;Group&gt;">
					<path id="&lt;Path&gt;" class="shp0" d="M303.85 350.77L153.72 350.77L150.74 350.77L0.61 350.77C3.58 331.94 9.03 311.87 16.96 290.56C28.85 258.6 101.59 243.34 114.32 234.08C125.22 226.15 128.94 209.05 125.47 182.79L152.23 183.5L178.99 182.79C175.52 209.05 179.23 226.15 190.14 234.08C202.87 243.34 275.61 258.6 287.5 290.56C295.43 311.87 300.88 331.94 303.85 350.77Z" />
					<path id="&lt;Path&gt;" class="shp1" d="M125.47 182.79L152.23 183.5L178.99 182.79C178.26 188.32 178.03 194.46 178.29 201.21C171.65 207.12 164.49 212.37 156.54 216.82C145.63 222.92 133.04 225.46 120.52 226.74C126.29 216.13 127.94 201.48 125.47 182.79Z" />
				</g>
				<g id="&lt;Group&gt;">
					<path id="&lt;Path&gt;" class="shp2" d="M306.08 350.77L154.84 350.77L151.85 350.77L0.61 350.77C3.6 331.8 9.09 311.58 17.08 290.12C27.6 261.85 85.36 246.55 107.98 236.92C119.67 242.65 133.32 245.95 147.91 245.95C164.71 245.95 180.26 241.58 193 234.16C209.14 243.59 278.03 258.99 289.61 290.12C297.6 311.58 303.09 331.8 306.08 350.77Z" />
					<path id="&lt;Path&gt;" class="shp3" d="M107.98 236.92C114.47 232.71 118.46 227.34 119.94 220.82L184.39 217.71C185.87 226.31 189.57 232.23 195.5 235.49C164.14 253.4 134.96 253.88 107.98 236.92Z" />
				</g>
			</g>
			<g id="&lt;Group&gt;">
				<g id="&lt;Group&gt;">
					<path id="&lt;Path&gt;" class="shp1" d="M99.67 146.49C92.02 148.72 83.87 141.11 82.03 127.06C80.21 113.09 90.78 111.52 91.79 111.4C92.75 111.08 102.98 107.98 107.3 121.38C111.65 134.87 107.54 145.24 99.67 146.49Z" />
					<path id="&lt;Path&gt;" class="shp1" d="M195.82 121.38C200.14 107.98 210.37 111.08 211.33 111.4C212.33 111.52 222.91 113.09 221.09 127.06C219.25 141.11 211.09 148.72 203.45 146.49C195.58 145.24 191.47 134.87 195.82 121.38Z" />
					<path id="&lt;Path&gt;" class="shp0" d="M150.49 195.91C117.18 198.03 90.85 159.42 96.24 100.29C101.59 41.52 146.27 44.81 150.49 45.25C154.7 44.81 199.38 41.52 204.74 100.29C210.13 159.42 183.79 198.03 150.49 195.91Z" />
				</g>
				<g id="&lt;Group&gt;">
					<g id="&lt;Group&gt;">
						<path id="&lt;Path&gt;" class="shp4" d="M156.87 120.36C157.19 121.3 157.44 122.26 157.7 123.21C157.97 124.16 158.19 125.12 158.42 126.08C158.86 128 159.23 129.92 159.57 131.85C159.89 133.79 160.22 135.72 160.45 137.67C160.72 139.61 160.92 141.56 161.08 143.52L161.13 144.02L160.82 144.29C159.64 145.3 158.43 146.28 157.22 147.25C155.96 148.18 154.76 149.16 153.45 150.03C154.4 148.78 155.44 147.63 156.44 146.43C157.47 145.27 158.52 144.12 159.59 143L159.32 143.77C158.93 141.84 158.58 139.91 158.29 137.98C157.97 136.04 157.74 134.1 157.5 132.15C157.29 130.2 157.11 128.25 156.99 126.28C156.94 125.3 156.88 124.32 156.88 123.33C156.87 122.34 156.83 121.36 156.87 120.36Z" />
					</g>
					<path id="&lt;Path&gt;" class="shp5" d="M124.62 158.68L177.64 158.13C163.51 172.04 145.83 172.23 124.62 158.68Z" />
					<g id="&lt;Group&gt;">
						<path id="&lt;Path&gt;" class="shp4" d="M138.21 169.33C138.59 169.42 139.11 169.55 139.75 169.72C140.73 169.95 142.1 170.49 143.77 170.75C144.61 170.89 145.5 171.05 146.42 171.25C147.34 171.5 148.39 171.42 149.41 171.56C150.45 171.66 151.51 171.8 152.6 171.7C153.68 171.66 154.79 171.67 155.89 171.59C156.97 171.41 158.06 171.24 159.13 171.07C160.22 170.98 161.2 170.52 162.21 170.27C163.19 169.95 164.2 169.76 165.04 169.3C165.9 168.9 166.74 168.54 167.51 168.21C168.32 167.92 168.94 167.46 169.55 167.13C170.14 166.77 170.67 166.47 171.1 166.21C171.67 165.88 172.14 165.62 172.49 165.44C172.23 165.72 171.85 166.09 171.36 166.55C170.99 166.9 170.54 167.32 170.02 167.81C169.5 168.28 168.94 168.9 168.17 169.31C167.43 169.78 166.62 170.29 165.75 170.81C164.9 171.39 163.89 171.73 162.85 172.12C162.33 172.32 161.8 172.52 161.26 172.72L160.45 173.02L159.59 173.17C158.44 173.38 157.27 173.59 156.1 173.8C154.92 173.87 153.73 173.84 152.57 173.85C151.39 173.94 150.27 173.67 149.17 173.51C148.09 173.3 147.02 173.24 146.06 172.86C145.08 172.56 144.18 172.24 143.35 171.95C142.5 171.7 141.81 171.32 141.19 170.98C140.58 170.65 140.04 170.36 139.59 170.12C139 169.8 138.54 169.54 138.21 169.33Z" />
					</g>
					<g id="&lt;Group&gt;">
						<path id="&lt;Path&gt;" class="shp6" d="M126.36 113.23C128.39 113.23 130.03 116.82 130.03 121.25C130.03 125.67 128.39 129.26 126.36 129.26C124.33 129.26 122.69 125.67 122.69 121.25C122.69 116.82 124.33 113.23 126.36 113.23Z" />
						<path id="&lt;Path&gt;" class="shp6" d="M176.79 113.23C178.81 113.23 180.46 116.82 180.46 121.25C180.46 125.67 178.81 129.26 176.79 129.26C174.76 129.26 173.12 125.67 173.12 121.25C173.12 116.82 174.76 113.23 176.79 113.23Z" />
					</g>
					<g id="&lt;Group&gt;">
						<path id="&lt;Path&gt;" class="shp6" d="M113.68 108.13C114.11 106.85 114.98 105.47 116.3 103.98C116.82 103.46 117.35 102.82 118.04 102.3C118.69 101.74 119.44 101.2 120.28 100.72C121.08 100.19 122.06 99.86 123.01 99.46C124.02 99.21 125.03 98.85 126.13 98.83C126.67 98.8 127.21 98.76 127.75 98.75C128.28 98.8 128.82 98.89 129.35 98.96C130.42 99.03 131.38 99.52 132.32 99.84C133.25 100.19 134 100.81 134.75 101.27C135.53 101.72 136.02 102.43 136.57 102.94C137.09 103.48 137.56 103.98 137.85 104.52C138.19 105.03 138.44 105.49 138.65 105.87C138.92 106.37 139.12 106.77 139.25 107.06C138.94 106.92 138.53 106.72 138.04 106.46C137.67 106.26 137.23 106.02 136.76 105.73C136.3 105.41 135.69 105.2 135.1 104.9C134.48 104.67 133.9 104.24 133.18 104.07C132.48 103.89 131.81 103.52 131.06 103.41C130.31 103.31 129.59 103.02 128.81 103.06C128.43 103.04 128.05 103.02 127.67 102.98L126.5 103.07C125.72 103.04 124.96 103.34 124.17 103.42C123.42 103.69 122.63 103.8 121.9 104.13C121.16 104.38 120.44 104.67 119.76 104.99C119.06 105.27 118.43 105.63 117.8 105.9C117.2 106.22 116.64 106.51 116.15 106.77C115.65 107.05 115.21 107.29 114.85 107.48C114.35 107.76 113.96 107.97 113.68 108.13Z" />
					</g>
					<g id="&lt;Group&gt;">
						<path id="&lt;Path&gt;" class="shp6" d="M164.46 108.13C164.89 106.85 165.76 105.47 167.08 103.98C167.61 103.46 168.13 102.82 168.82 102.3C169.48 101.74 170.22 101.2 171.07 100.72C171.87 100.19 172.84 99.86 173.79 99.46C174.81 99.21 175.82 98.85 176.91 98.83C177.45 98.8 177.99 98.76 178.53 98.75C179.07 98.8 179.6 98.89 180.13 98.96C181.21 99.03 182.16 99.52 183.1 99.84C184.04 100.19 184.78 100.81 185.54 101.27C186.31 101.72 186.8 102.43 187.35 102.94C187.88 103.48 188.34 103.98 188.64 104.52C188.97 105.03 189.22 105.49 189.43 105.87C189.7 106.37 189.91 106.77 190.03 107.06C189.72 106.92 189.32 106.72 188.82 106.46C188.46 106.26 188.01 106.02 187.54 105.73C187.08 105.41 186.48 105.2 185.88 104.9C185.26 104.67 184.68 104.24 183.96 104.07C183.26 103.89 182.59 103.52 181.84 103.41C181.1 103.31 180.37 103.02 179.6 103.06C179.21 103.04 178.83 103.02 178.45 102.98L177.29 103.07C176.51 103.04 175.74 103.34 174.96 103.42C174.2 103.69 173.41 103.8 172.69 104.13C171.94 104.38 171.22 104.67 170.54 104.99C169.84 105.27 169.21 105.63 168.59 105.9C167.98 106.22 167.43 106.51 166.93 106.77C166.43 107.05 165.99 107.29 165.63 107.48C165.14 107.76 164.75 107.97 164.46 108.13Z" />
					</g>
				</g>
				<g id="&lt;Group&gt;">
					<path id="&lt;Path&gt;" class="shp7" d="M200.39 133.27L201.05 101.94C188.16 99.71 183.28 87.05 186.39 63.94C159.72 71.05 135.28 71.05 113.05 63.94C113.5 86.6 109.28 100.16 100.39 104.6L100.39 135.27L96.39 135.27C77.72 79.71 80.61 46.82 105.05 36.6C114.83 20.16 131.72 10.82 155.72 8.6L143.05 22.6C154.16 13.71 168.61 9.71 186.39 10.6L175.05 27.27C190.61 15.71 200.16 6.6 203.72 -0.06C208.61 17.71 208.16 31.05 202.39 39.94C209.05 30.6 212.39 22.16 212.39 14.6C216.83 25.71 217.28 37.27 213.72 49.27C218.16 79.49 215.28 107.27 205.05 132.6L200.39 133.27Z" />
					<path id="&lt;Path&gt;" class="shp8" d="M113.05 63.94C113.5 86.6 109.28 100.16 100.39 104.6L100.39 135.27L96.39 135.27C77.72 79.71 80.61 46.82 105.05 36.6C105.43 35.99 106 35.18 106.75 34.19C110.08 43.28 115.59 51.18 124.28 57.22C130.69 61.67 137.81 65.42 145.12 68.58C132.29 68.2 121.6 66.65 113.05 63.94Z" />
				</g>
			</g>
		</g>
	</g>
</svg>